<?xml version="1.0" encoding="UTF-8" standalone="no"?>
<!DOCTYPE svg PUBLIC "-//W3C//DTD SVG 1.1//EN"
 "http://www.w3.org/Graphics/SVG/1.1/DTD/svg11.dtd">
<!-- Generated by graphviz version 2.39.20160214.2135 (20160214.2135)
 -->
<!-- Title: g Pages: 1 -->
<svg width="943pt" height="432pt"
 viewBox="0.00 0.00 943.17 431.89" xmlns="http://www.w3.org/2000/svg" xmlns:xlink="http://www.w3.org/1999/xlink">
<g id="graph0" class="graph" transform="scale(1 1) rotate(0) translate(4 427.886)">
<title>g</title>
<polygon fill="white" stroke="transparent" points="-4,4 -4,-427.886 939.173,-427.886 939.173,4 -4,4"/>
<g id="clust1" class="cluster">
<title>cluster_processors</title>
<polygon fill="none" stroke="black" points="8,-78 8,-152 882,-152 882,-78 8,-78"/>
<text text-anchor="middle" x="445" y="-136.8" font-family="Times,serif" font-size="14.00">processors</text>
</g>
<!-- generators -->
<g id="node1" class="node">
<title>generators</title>
<ellipse fill="none" stroke="black" cx="495" cy="-376.951" rx="46.8719" ry="46.8719"/>
<text text-anchor="middle" x="495" y="-372.751" font-family="Times,serif" font-size="14.00">generators</text>
</g>
<!-- providers -->
<g id="node2" class="node">
<title>providers</title>
<ellipse fill="none" stroke="black" cx="495" cy="-249.507" rx="43.5146" ry="43.5146"/>
<text text-anchor="middle" x="495" y="-245.307" font-family="Times,serif" font-size="14.00">providers</text>
</g>
<!-- generators&#45;&gt;providers -->
<g id="edge1" class="edge">
<title>generators&#45;&gt;providers</title>
<path fill="none" stroke="black" d="M495,-329.857C495,-321.194 495,-312.089 495,-303.247"/>
<polygon fill="black" stroke="black" points="498.5,-303.03 495,-293.03 491.5,-303.03 498.5,-303.03"/>
</g>
<!-- processors_regex_AbstractRegexExtensionExtractor -->
<g id="node4" class="node">
<title>processors_regex_AbstractRegexExtensionExtractor</title>
<ellipse fill="none" stroke="black" cx="147" cy="-104" rx="130.854" ry="18"/>
<text text-anchor="middle" x="147" y="-99.8" font-family="Times,serif" font-size="14.00">AbstractRegexExtensionExtractor</text>
</g>
<!-- providers&#45;&gt;processors_regex_AbstractRegexExtensionExtractor -->
<g id="edge2" class="edge">
<title>providers&#45;&gt;processors_regex_AbstractRegexExtensionExtractor</title>
<path fill="none" stroke="black" d="M451.268,-246.097C397.67,-240.4 305.405,-225.582 235.827,-188 208.866,-173.437 184.063,-148.583 167.559,-129.678"/>
<polygon fill="black" stroke="black" points="170.159,-127.333 161.012,-121.987 164.829,-131.871 170.159,-127.333"/>
<text text-anchor="middle" x="316.086" y="-176.8" font-family="Times,serif" font-size="14.00">StreamsDatum[Activity]</text>
<text text-anchor="middle" x="316.086" y="-162.8" font-family="Times,serif" font-size="14.00">StreamsDatum[ObjectNode]</text>
</g>
<!-- processors_regex_RegexHashtagExtractor -->
<g id="node5" class="node">
<title>processors_regex_RegexHashtagExtractor</title>
<ellipse fill="none" stroke="black" cx="391" cy="-104" rx="94.655" ry="18"/>
<text text-anchor="middle" x="391" y="-99.8" font-family="Times,serif" font-size="14.00">RegexHashtagExtractor</text>
</g>
<!-- providers&#45;&gt;processors_regex_RegexHashtagExtractor -->
<g id="edge4" class="edge">
<title>providers&#45;&gt;processors_regex_RegexHashtagExtractor</title>
<path fill="none" stroke="black" d="M456.256,-228.898C440.309,-218.594 422.994,-204.73 411.827,-188 400.775,-171.441 395.584,-149.521 393.148,-132.225"/>
<polygon fill="black" stroke="black" points="396.606,-131.664 391.96,-122.143 389.655,-132.484 396.606,-131.664"/>
<text text-anchor="middle" x="492.086" y="-176.8" font-family="Times,serif" font-size="14.00">StreamsDatum[Activity]</text>
<text text-anchor="middle" x="492.086" y="-162.8" font-family="Times,serif" font-size="14.00">StreamsDatum[ObjectNode]</text>
</g>
<!-- processors_regex_RegexMentionsExtractor -->
<g id="node6" class="node">
<title>processors_regex_RegexMentionsExtractor</title>
<ellipse fill="none" stroke="black" cx="603" cy="-104" rx="99.0157" ry="18"/>
<text text-anchor="middle" x="603" y="-99.8" font-family="Times,serif" font-size="14.00">RegexMentionsExtractor</text>
</g>
<!-- providers&#45;&gt;processors_regex_RegexMentionsExtractor -->
<g id="edge6" class="edge">
<title>providers&#45;&gt;processors_regex_RegexMentionsExtractor</title>
<path fill="none" stroke="black" d="M532.001,-226.34C546.077,-216.025 561.286,-202.845 572,-188 584.054,-171.299 591.935,-149.383 596.733,-132.125"/>
<polygon fill="black" stroke="black" points="600.218,-132.628 599.332,-122.07 593.441,-130.876 600.218,-132.628"/>
<text text-anchor="middle" x="668.086" y="-176.8" font-family="Times,serif" font-size="14.00">StreamsDatum[Activity]</text>
<text text-anchor="middle" x="668.086" y="-162.8" font-family="Times,serif" font-size="14.00">StreamsDatum[ObjectNode]</text>
</g>
<!-- processors_regex_RegexUrlExtractor -->
<g id="node7" class="node">
<title>processors_regex_RegexUrlExtractor</title>
<ellipse fill="none" stroke="black" cx="797" cy="-104" rx="77.2744" ry="18"/>
<text text-anchor="middle" x="797" y="-99.8" font-family="Times,serif" font-size="14.00">RegexUrlExtractor</text>
</g>
<!-- providers&#45;&gt;processors_regex_RegexUrlExtractor -->
<g id="edge8" class="edge">
<title>providers&#45;&gt;processors_regex_RegexUrlExtractor</title>
<path fill="none" stroke="black" d="M538.192,-243.531C602.354,-233.939 718.85,-213.566 752,-188 770.323,-173.869 782.057,-150.106 788.932,-131.453"/>
<polygon fill="black" stroke="black" points="792.248,-132.571 792.178,-121.977 785.626,-130.303 792.248,-132.571"/>
<text text-anchor="middle" x="855.086" y="-176.8" font-family="Times,serif" font-size="14.00">StreamsDatum[Activity]</text>
<text text-anchor="middle" x="855.086" y="-162.8" font-family="Times,serif" font-size="14.00">StreamsDatum[ObjectNode]</text>
</g>
<!-- persisters -->
<g id="node3" class="node">
<title>persisters</title>
<path fill="none" stroke="black" d="M531.376,-32.7273C531.376,-34.5331 515.968,-36 497,-36 478.032,-36 462.624,-34.5331 462.624,-32.7273 462.624,-32.7273 462.624,-3.27273 462.624,-3.27273 462.624,-1.46689 478.032,-0 497,-0 515.968,-0 531.376,-1.46689 531.376,-3.27273 531.376,-3.27273 531.376,-32.7273 531.376,-32.7273"/>
<path fill="none" stroke="black" d="M531.376,-32.7273C531.376,-30.9214 515.968,-29.4545 497,-29.4545 478.032,-29.4545 462.624,-30.9214 462.624,-32.7273"/>
<text text-anchor="middle" x="497" y="-13.8" font-family="Times,serif" font-size="14.00">persisters</text>
</g>
<!-- processors_regex_AbstractRegexExtensionExtractor&#45;&gt;persisters -->
<g id="edge3" class="edge">
<title>processors_regex_AbstractRegexExtensionExtractor&#45;&gt;persisters</title>
<path fill="none" stroke="black" d="M184.802,-86.7276C209.82,-75.9144 243.607,-62.4733 274.586,-54 335.142,-37.4371 407.19,-27.4921 452.517,-22.3771"/>
<polygon fill="black" stroke="black" points="453.047,-25.84 462.605,-21.2688 452.283,-18.8818 453.047,-25.84"/>
<text text-anchor="middle" x="344.207" y="-56.8" font-family="Times,serif" font-size="14.00">StreamsDatum[Activity]</text>
</g>
<!-- processors_regex_RegexHashtagExtractor&#45;&gt;persisters -->
<g id="edge5" class="edge">
<title>processors_regex_RegexHashtagExtractor&#45;&gt;persisters</title>
<path fill="none" stroke="black" d="M402.256,-85.7974C409.223,-75.5632 418.87,-63.0632 429.586,-54 436.728,-47.9596 445.049,-42.5159 453.358,-37.7983"/>
<polygon fill="black" stroke="black" points="455.172,-40.7968 462.313,-32.9704 451.85,-34.6352 455.172,-40.7968"/>
<text text-anchor="middle" x="499.207" y="-56.8" font-family="Times,serif" font-size="14.00">StreamsDatum[Activity]</text>
</g>
<!-- processors_regex_RegexMentionsExtractor&#45;&gt;persisters -->
<g id="edge7" class="edge">
<title>processors_regex_RegexMentionsExtractor&#45;&gt;persisters</title>
<path fill="none" stroke="black" d="M593.183,-85.6665C586.994,-75.3886 578.244,-62.8886 568,-54 559.931,-46.9989 550.262,-40.9436 540.695,-35.9012"/>
<polygon fill="black" stroke="black" points="542.12,-32.7013 531.608,-31.3793 539.002,-38.9682 542.12,-32.7013"/>
<text text-anchor="middle" x="650.207" y="-56.8" font-family="Times,serif" font-size="14.00">StreamsDatum[Activity]</text>
</g>
<!-- processors_regex_RegexUrlExtractor&#45;&gt;persisters -->
<g id="edge9" class="edge">
<title>processors_regex_RegexUrlExtractor&#45;&gt;persisters</title>
<path fill="none" stroke="black" d="M776.393,-86.4459C762.272,-75.3721 742.613,-61.7449 723,-54 690.82,-41.2928 597.827,-29.2136 541.657,-22.7892"/>
<polygon fill="black" stroke="black" points="541.95,-19.3001 531.621,-21.6565 541.165,-26.2559 541.95,-19.3001"/>
<text text-anchor="middle" x="818.207" y="-56.8" font-family="Times,serif" font-size="14.00">StreamsDatum[Activity]</text>
</g>
</g>
</svg>
