<?xml version="1.0" encoding="UTF-8" standalone="no"?>
<!DOCTYPE svg PUBLIC "-//W3C//DTD SVG 1.1//EN"
 "http://www.w3.org/Graphics/SVG/1.1/DTD/svg11.dtd">
<!-- Generated by graphviz version 2.39.20160214.2135 (20160214.2135)
 -->
<!-- Title: g Pages: 1 -->
<svg width="553pt" height="367pt"
 viewBox="0.00 0.00 553.00 367.00" xmlns="http://www.w3.org/2000/svg" xmlns:xlink="http://www.w3.org/1999/xlink">
<g id="graph0" class="graph" transform="scale(1 1) rotate(0) translate(4 363)">
<title>g</title>
<polygon fill="white" stroke="transparent" points="-4,4 -4,-363 549,-363 549,4 -4,4"/>
<g id="clust1" class="cluster">
<title>cluster_generators</title>
<polygon fill="none" stroke="black" stroke-dasharray="1,5" points="125,-277 125,-351 339,-351 339,-277 125,-277"/>
<text text-anchor="middle" x="232" y="-335.8" font-family="Times,serif" font-size="14.00">generators</text>
</g>
<g id="clust2" class="cluster">
<title>cluster_providers</title>
<polygon fill="none" stroke="black" points="149,-184 149,-258 315,-258 315,-184 149,-184"/>
<text text-anchor="middle" x="232" y="-242.8" font-family="Times,serif" font-size="14.00">providers</text>
</g>
<g id="clust3" class="cluster">
<title>cluster_processors</title>
<polygon fill="none" stroke="black" points="8,-78 8,-152 537,-152 537,-78 8,-78"/>
<text text-anchor="middle" x="272.5" y="-136.8" font-family="Times,serif" font-size="14.00">processors</text>
</g>
<!-- generators_moreover -->
<g id="node1" class="node">
<title>generators_moreover</title>
<ellipse fill="none" stroke="black" cx="232" cy="-303" rx="98.5571" ry="18"/>
<text text-anchor="middle" x="232" y="-298.8" font-family="Times,serif" font-size="14.00">https://api.moreover.com</text>
</g>
<!-- providers_moreover -->
<g id="node2" class="node">
<title>providers_moreover</title>
<ellipse fill="none" stroke="black" cx="232" cy="-210" rx="75.3621" ry="18"/>
<text text-anchor="middle" x="232" y="-205.8" font-family="Times,serif" font-size="14.00">MoreoverProvider</text>
</g>
<!-- generators_moreover&#45;&gt;providers_moreover -->
<g id="edge1" class="edge">
<title>generators_moreover&#45;&gt;providers_moreover</title>
<path fill="none" stroke="black" d="M232,-284.626C232,-271.421 232,-253.369 232,-238.327"/>
<polygon fill="black" stroke="black" points="235.5,-238.019 232,-228.019 228.5,-238.019 235.5,-238.019"/>
</g>
<!-- processors_moreover_jsonconverter -->
<g id="node3" class="node">
<title>processors_moreover_jsonconverter</title>
<ellipse fill="none" stroke="black" cx="140" cy="-104" rx="123.63" ry="18"/>
<text text-anchor="middle" x="140" y="-99.8" font-family="Times,serif" font-size="14.00">MoreoverJsonActivitySerializer</text>
</g>
<!-- providers_moreover&#45;&gt;processors_moreover_jsonconverter -->
<g id="edge2" class="edge">
<title>providers_moreover&#45;&gt;processors_moreover_jsonconverter</title>
<path fill="none" stroke="black" d="M216.393,-192.019C201.524,-174.887 178.987,-148.919 162.24,-129.624"/>
<polygon fill="black" stroke="black" points="164.881,-127.328 155.683,-122.07 159.595,-131.916 164.881,-127.328"/>
<text text-anchor="middle" x="239.652" y="-162.8" font-family="Times,serif" font-size="14.00">c.m.Moreover</text>
</g>
<!-- processors_moreover_xmlconverter -->
<g id="node4" class="node">
<title>processors_moreover_xmlconverter</title>
<ellipse fill="none" stroke="black" cx="405" cy="-104" rx="123.621" ry="18"/>
<text text-anchor="middle" x="405" y="-99.8" font-family="Times,serif" font-size="14.00">MoreoverXmlActivitySerializer</text>
</g>
<!-- providers_moreover&#45;&gt;processors_moreover_xmlconverter -->
<g id="edge3" class="edge">
<title>providers_moreover&#45;&gt;processors_moreover_xmlconverter</title>
<path fill="none" stroke="black" d="M259.412,-193.204C288.587,-175.328 334.939,-146.927 367.487,-126.985"/>
<polygon fill="black" stroke="black" points="369.577,-129.809 376.276,-121.6 365.92,-123.84 369.577,-129.809"/>
<text text-anchor="middle" x="349.343" y="-162.8" font-family="Times,serif" font-size="14.00">c.m.a.Article</text>
</g>
<!-- persisters -->
<g id="node5" class="node">
<title>persisters</title>
<path fill="none" stroke="black" d="M324.376,-32.7273C324.376,-34.5331 308.968,-36 290,-36 271.032,-36 255.624,-34.5331 255.624,-32.7273 255.624,-32.7273 255.624,-3.27273 255.624,-3.27273 255.624,-1.46689 271.032,-0 290,-0 308.968,-0 324.376,-1.46689 324.376,-3.27273 324.376,-3.27273 324.376,-32.7273 324.376,-32.7273"/>
<path fill="none" stroke="black" d="M324.376,-32.7273C324.376,-30.9214 308.968,-29.4545 290,-29.4545 271.032,-29.4545 255.624,-30.9214 255.624,-32.7273"/>
<text text-anchor="middle" x="290" y="-13.8" font-family="Times,serif" font-size="14.00">persisters</text>
</g>
<!-- processors_moreover_jsonconverter&#45;&gt;persisters -->
<g id="edge4" class="edge">
<title>processors_moreover_jsonconverter&#45;&gt;persisters</title>
<path fill="none" stroke="black" d="M170.717,-86.3891C194.076,-72.9965 226.364,-54.4846 251.457,-40.0979"/>
<polygon fill="black" stroke="black" points="253.412,-43.0115 260.347,-35.0013 249.93,-36.9388 253.412,-43.0115"/>
<text text-anchor="middle" x="270.467" y="-56.8" font-family="Times,serif" font-size="14.00">o.a.s.p.j.Activity</text>
</g>
<!-- processors_moreover_xmlconverter&#45;&gt;persisters -->
<g id="edge5" class="edge">
<title>processors_moreover_xmlconverter&#45;&gt;persisters</title>
<path fill="none" stroke="black" d="M381.172,-86.1807C364.056,-73.3813 340.795,-55.986 322.053,-41.9698"/>
<polygon fill="black" stroke="black" points="323.902,-38.9824 313.798,-35.7964 319.71,-44.5882 323.902,-38.9824"/>
<text text-anchor="middle" x="400.467" y="-56.8" font-family="Times,serif" font-size="14.00">o.a.s.p.j.Activity</text>
</g>
</g>
</svg>
