<?xml version="1.0" encoding="UTF-8" standalone="no"?>
<!DOCTYPE svg PUBLIC "-//W3C//DTD SVG 1.1//EN"
 "http://www.w3.org/Graphics/SVG/1.1/DTD/svg11.dtd">
<!-- Generated by graphviz version 2.39.20160214.2135 (20160214.2135)
 -->
<!-- Title: g Pages: 1 -->
<svg width="360pt" height="573pt"
 viewBox="0.00 0.00 360.00 572.76" xmlns="http://www.w3.org/2000/svg" xmlns:xlink="http://www.w3.org/1999/xlink">
<g id="graph0" class="graph" transform="scale(1 1) rotate(0) translate(4 568.76)">
<title>g</title>
<polygon fill="white" stroke="transparent" points="-4,4 -4,-568.76 356,-568.76 356,4 -4,4"/>
<g id="clust1" class="cluster">
<title>cluster_persisters</title>
<polygon fill="none" stroke="black" points="8,-101 8,-175 344,-175 344,-101 8,-101"/>
<text text-anchor="middle" x="176" y="-159.8" font-family="Times,serif" font-size="14.00">persisters</text>
</g>
<g id="clust2" class="cluster">
<title>cluster_dbs</title>
<polygon fill="none" stroke="black" points="100,-8 100,-82 170,-82 170,-8 100,-8"/>
<text text-anchor="middle" x="135" y="-66.8" font-family="Times,serif" font-size="14.00">dbs</text>
</g>
<!-- generators -->
<g id="node1" class="node">
<title>generators</title>
<ellipse fill="none" stroke="black" cx="179" cy="-517.824" rx="46.8719" ry="46.8719"/>
<text text-anchor="middle" x="179" y="-513.624" font-family="Times,serif" font-size="14.00">generators</text>
</g>
<!-- providers -->
<g id="node2" class="node">
<title>providers</title>
<ellipse fill="none" stroke="black" cx="179" cy="-390.381" rx="43.5146" ry="43.5146"/>
<text text-anchor="middle" x="179" y="-386.181" font-family="Times,serif" font-size="14.00">providers</text>
</g>
<!-- generators&#45;&gt;providers -->
<g id="edge1" class="edge">
<title>generators&#45;&gt;providers</title>
<path fill="none" stroke="black" d="M179,-470.731C179,-462.067 179,-452.962 179,-444.121"/>
<polygon fill="black" stroke="black" points="182.5,-443.904 179,-433.904 175.5,-443.904 182.5,-443.904"/>
</g>
<!-- processors -->
<g id="node3" class="node">
<title>processors</title>
<ellipse fill="none" stroke="black" cx="179" cy="-262.437" rx="47.3736" ry="47.3736"/>
<text text-anchor="middle" x="179" y="-258.237" font-family="Times,serif" font-size="14.00">processors</text>
</g>
<!-- providers&#45;&gt;processors -->
<g id="edge2" class="edge">
<title>providers&#45;&gt;processors</title>
<path fill="none" stroke="black" d="M179,-346.708C179,-338.279 179,-329.325 179,-320.521"/>
<polygon fill="black" stroke="black" points="182.5,-320.296 179,-310.296 175.5,-320.296 182.5,-320.296"/>
</g>
<!-- persisters_graph_writer -->
<g id="node5" class="node">
<title>persisters_graph_writer</title>
<ellipse fill="none" stroke="black" cx="87" cy="-127" rx="70.8107" ry="18"/>
<text text-anchor="middle" x="87" y="-122.8" font-family="Times,serif" font-size="14.00">GraphHttpWriter</text>
</g>
<!-- processors&#45;&gt;persisters_graph_writer -->
<g id="edge3" class="edge">
<title>processors&#45;&gt;persisters_graph_writer</title>
<path fill="none" stroke="black" d="M149.75,-224.824C143.025,-215.828 136.023,-206.171 129.793,-197 120.233,-182.928 110.279,-166.749 102.379,-153.493"/>
<polygon fill="black" stroke="black" points="105.369,-151.673 97.2681,-144.845 99.3424,-155.234 105.369,-151.673"/>
<text text-anchor="middle" x="171.604" y="-185.8" font-family="Times,serif" font-size="14.00">StreamsDatum</text>
</g>
<!-- persisters_graph_reader -->
<g id="node4" class="node">
<title>persisters_graph_reader</title>
<ellipse fill="none" stroke="black" cx="256" cy="-127" rx="80.1559" ry="18"/>
<text text-anchor="middle" x="256" y="-122.8" font-family="Times,serif" font-size="14.00">GraphVertexReader</text>
</g>
<!-- persisters_graph_reader&#45;&gt;processors -->
<g id="edge4" class="edge">
<title>persisters_graph_reader&#45;&gt;processors</title>
<path fill="none" stroke="black" d="M245.663,-145.182C235.922,-162.316 220.871,-188.789 207.534,-212.248"/>
<polygon fill="black" stroke="black" points="204.421,-210.642 202.521,-221.065 210.506,-214.102 204.421,-210.642"/>
<text text-anchor="middle" x="263.604" y="-185.8" font-family="Times,serif" font-size="14.00">StreamsDatum</text>
</g>
<!-- neo4j -->
<g id="node6" class="node">
<title>neo4j</title>
<path fill="none" stroke="black" d="M162,-48.7273C162,-50.5331 149.898,-52 135,-52 120.102,-52 108,-50.5331 108,-48.7273 108,-48.7273 108,-19.2727 108,-19.2727 108,-17.4669 120.102,-16 135,-16 149.898,-16 162,-17.4669 162,-19.2727 162,-19.2727 162,-48.7273 162,-48.7273"/>
<path fill="none" stroke="black" d="M162,-48.7273C162,-46.9214 149.898,-45.4545 135,-45.4545 120.102,-45.4545 108,-46.9214 108,-48.7273"/>
<text text-anchor="middle" x="135" y="-29.8" font-family="Times,serif" font-size="14.00">neo4j</text>
</g>
<!-- persisters_graph_writer&#45;&gt;neo4j -->
<g id="edge6" class="edge">
<title>persisters_graph_writer&#45;&gt;neo4j</title>
<path fill="none" stroke="black" d="M96.2549,-109.069C103.249,-95.5184 112.97,-76.6837 120.925,-61.2705"/>
<polygon fill="black" stroke="black" points="124.133,-62.6851 125.61,-52.1936 117.913,-59.4746 124.133,-62.6851"/>
</g>
<!-- neo4j&#45;&gt;persisters_graph_reader -->
<g id="edge5" class="edge">
<title>neo4j&#45;&gt;persisters_graph_reader</title>
<path fill="none" stroke="black" d="M157.657,-51.4142C176.725,-66.0697 204.173,-87.1662 225.228,-103.349"/>
<polygon fill="black" stroke="black" points="223.179,-106.188 233.241,-109.507 227.445,-100.638 223.179,-106.188"/>
</g>
</g>
</svg>
