<?xml version="1.0" encoding="UTF-8" standalone="no"?>
<!DOCTYPE svg PUBLIC "-//W3C//DTD SVG 1.1//EN"
 "http://www.w3.org/Graphics/SVG/1.1/DTD/svg11.dtd">
<!-- Generated by graphviz version 2.39.20160214.2135 (20160214.2135)
 -->
<!-- Title: g Pages: 1 -->
<svg width="374pt" height="573pt"
 viewBox="0.00 0.00 374.00 572.76" xmlns="http://www.w3.org/2000/svg" xmlns:xlink="http://www.w3.org/1999/xlink">
<g id="graph0" class="graph" transform="scale(1 1) rotate(0) translate(4 568.76)">
<title>g</title>
<polygon fill="white" stroke="transparent" points="-4,4 -4,-568.76 370,-568.76 370,4 -4,4"/>
<g id="clust1" class="cluster">
<title>cluster_persisters</title>
<polygon fill="none" stroke="black" points="8,-101 8,-175 358,-175 358,-101 8,-101"/>
<text text-anchor="middle" x="183" y="-159.8" font-family="Times,serif" font-size="14.00">persisters</text>
</g>
<g id="clust2" class="cluster">
<title>cluster_queues</title>
<polygon fill="none" stroke="black" points="94,-8 94,-82 194,-82 194,-8 94,-8"/>
<text text-anchor="middle" x="144" y="-66.8" font-family="Times,serif" font-size="14.00">queues</text>
</g>
<!-- generators -->
<g id="node1" class="node">
<title>generators</title>
<ellipse fill="none" stroke="black" cx="190" cy="-517.824" rx="46.8719" ry="46.8719"/>
<text text-anchor="middle" x="190" y="-513.624" font-family="Times,serif" font-size="14.00">generators</text>
</g>
<!-- providers -->
<g id="node2" class="node">
<title>providers</title>
<ellipse fill="none" stroke="black" cx="190" cy="-390.381" rx="43.5146" ry="43.5146"/>
<text text-anchor="middle" x="190" y="-386.181" font-family="Times,serif" font-size="14.00">providers</text>
</g>
<!-- generators&#45;&gt;providers -->
<g id="edge1" class="edge">
<title>generators&#45;&gt;providers</title>
<path fill="none" stroke="black" d="M190,-470.731C190,-462.067 190,-452.962 190,-444.121"/>
<polygon fill="black" stroke="black" points="193.5,-443.904 190,-433.904 186.5,-443.904 193.5,-443.904"/>
</g>
<!-- processors -->
<g id="node3" class="node">
<title>processors</title>
<ellipse fill="none" stroke="black" cx="190" cy="-262.437" rx="47.3736" ry="47.3736"/>
<text text-anchor="middle" x="190" y="-258.237" font-family="Times,serif" font-size="14.00">processors</text>
</g>
<!-- providers&#45;&gt;processors -->
<g id="edge2" class="edge">
<title>providers&#45;&gt;processors</title>
<path fill="none" stroke="black" d="M190,-346.708C190,-338.279 190,-329.325 190,-320.521"/>
<polygon fill="black" stroke="black" points="193.5,-320.296 190,-310.296 186.5,-320.296 193.5,-320.296"/>
</g>
<!-- persisters_kafka_writer -->
<g id="node5" class="node">
<title>persisters_kafka_writer</title>
<ellipse fill="none" stroke="black" cx="94" cy="-127" rx="78.0438" ry="18"/>
<text text-anchor="middle" x="94" y="-122.8" font-family="Times,serif" font-size="14.00">KafkaPersistWriter</text>
</g>
<!-- processors&#45;&gt;persisters_kafka_writer -->
<g id="edge3" class="edge">
<title>processors&#45;&gt;persisters_kafka_writer</title>
<path fill="none" stroke="black" d="M161.938,-223.758C155.614,-214.979 148.951,-205.684 142.793,-197 132.628,-182.666 121.406,-166.585 112.29,-153.455"/>
<polygon fill="black" stroke="black" points="114.929,-151.118 106.354,-144.894 109.176,-155.106 114.929,-151.118"/>
<text text-anchor="middle" x="184.604" y="-185.8" font-family="Times,serif" font-size="14.00">StreamsDatum</text>
</g>
<!-- persisters_kafka_reader -->
<g id="node4" class="node">
<title>persisters_kafka_reader</title>
<ellipse fill="none" stroke="black" cx="270" cy="-127" rx="80.1731" ry="18"/>
<text text-anchor="middle" x="270" y="-122.8" font-family="Times,serif" font-size="14.00">KafkaPersistReader</text>
</g>
<!-- persisters_kafka_reader&#45;&gt;processors -->
<g id="edge4" class="edge">
<title>persisters_kafka_reader&#45;&gt;processors</title>
<path fill="none" stroke="black" d="M259.41,-144.928C249.252,-162.126 233.437,-188.9 219.468,-212.549"/>
<polygon fill="black" stroke="black" points="216.292,-211.044 214.22,-221.434 222.319,-214.604 216.292,-211.044"/>
<text text-anchor="middle" x="297.379" y="-185.8" font-family="Times,serif" font-size="14.00">StreamsDatum[String]</text>
</g>
<!-- kafka -->
<g id="node6" class="node">
<title>kafka</title>
<polygon fill="none" stroke="black" points="168.606,-52 119.394,-52 101.867,-16 186.133,-16 168.606,-52"/>
<text text-anchor="middle" x="144" y="-29.8" font-family="Times,serif" font-size="14.00">kafka</text>
</g>
<!-- persisters_kafka_writer&#45;&gt;kafka -->
<g id="edge5" class="edge">
<title>persisters_kafka_writer&#45;&gt;kafka</title>
<path fill="none" stroke="black" d="M103.641,-109.069C110.926,-95.5184 121.052,-76.6837 129.338,-61.2705"/>
<polygon fill="black" stroke="black" points="132.566,-62.6588 134.218,-52.1936 126.4,-59.344 132.566,-62.6588"/>
</g>
<!-- kafka&#45;&gt;persisters_kafka_reader -->
<g id="edge6" class="edge">
<title>kafka&#45;&gt;persisters_kafka_reader</title>
<path fill="none" stroke="black" d="M168.57,-52.1348C188.504,-66.8485 216.747,-87.694 238.37,-103.654"/>
<polygon fill="black" stroke="black" points="236.471,-106.603 246.596,-109.725 240.628,-100.971 236.471,-106.603"/>
</g>
</g>
</svg>
