<?xml version="1.0" encoding="UTF-8" standalone="no"?>
<!DOCTYPE svg PUBLIC "-//W3C//DTD SVG 1.1//EN"
 "http://www.w3.org/Graphics/SVG/1.1/DTD/svg11.dtd">
<!-- Generated by graphviz version 2.39.20160214.2135 (20160214.2135)
 -->
<!-- Title: g Pages: 1 -->
<svg width="390pt" height="573pt"
 viewBox="0.00 0.00 390.00 572.76" xmlns="http://www.w3.org/2000/svg" xmlns:xlink="http://www.w3.org/1999/xlink">
<g id="graph0" class="graph" transform="scale(1 1) rotate(0) translate(4 568.76)">
<title>g</title>
<polygon fill="white" stroke="transparent" points="-4,4 -4,-568.76 386,-568.76 386,4 -4,4"/>
<g id="clust1" class="cluster">
<title>cluster_persisters</title>
<polygon fill="none" stroke="black" points="8,-101 8,-175 374,-175 374,-101 8,-101"/>
<text text-anchor="middle" x="191" y="-159.8" font-family="Times,serif" font-size="14.00">persisters</text>
</g>
<g id="clust2" class="cluster">
<title>cluster_dbs</title>
<polygon fill="none" stroke="black" points="115,-8 115,-82 185,-82 185,-8 115,-8"/>
<text text-anchor="middle" x="150" y="-66.8" font-family="Times,serif" font-size="14.00">dbs</text>
</g>
<!-- generators -->
<g id="node1" class="node">
<title>generators</title>
<ellipse fill="none" stroke="black" cx="199" cy="-517.824" rx="46.8719" ry="46.8719"/>
<text text-anchor="middle" x="199" y="-513.624" font-family="Times,serif" font-size="14.00">generators</text>
</g>
<!-- providers -->
<g id="node2" class="node">
<title>providers</title>
<ellipse fill="none" stroke="black" cx="199" cy="-390.381" rx="43.5146" ry="43.5146"/>
<text text-anchor="middle" x="199" y="-386.181" font-family="Times,serif" font-size="14.00">providers</text>
</g>
<!-- generators&#45;&gt;providers -->
<g id="edge1" class="edge">
<title>generators&#45;&gt;providers</title>
<path fill="none" stroke="black" d="M199,-470.731C199,-462.067 199,-452.962 199,-444.121"/>
<polygon fill="black" stroke="black" points="202.5,-443.904 199,-433.904 195.5,-443.904 202.5,-443.904"/>
</g>
<!-- processors -->
<g id="node3" class="node">
<title>processors</title>
<ellipse fill="none" stroke="black" cx="199" cy="-262.437" rx="47.3736" ry="47.3736"/>
<text text-anchor="middle" x="199" y="-258.237" font-family="Times,serif" font-size="14.00">processors</text>
</g>
<!-- providers&#45;&gt;processors -->
<g id="edge2" class="edge">
<title>providers&#45;&gt;processors</title>
<path fill="none" stroke="black" d="M199,-346.708C199,-338.279 199,-329.325 199,-320.521"/>
<polygon fill="black" stroke="black" points="202.5,-320.296 199,-310.296 195.5,-320.296 202.5,-320.296"/>
</g>
<!-- persisters_mongo_writer -->
<g id="node5" class="node">
<title>persisters_mongo_writer</title>
<ellipse fill="none" stroke="black" cx="98" cy="-127" rx="81.9372" ry="18"/>
<text text-anchor="middle" x="98" y="-122.8" font-family="Times,serif" font-size="14.00">MongoPersistWriter</text>
</g>
<!-- processors&#45;&gt;persisters_mongo_writer -->
<g id="edge3" class="edge">
<title>processors&#45;&gt;persisters_mongo_writer</title>
<path fill="none" stroke="black" d="M170.597,-224.35C153.648,-201.621 132.561,-173.345 117.489,-153.133"/>
<polygon fill="black" stroke="black" points="120.211,-150.929 111.427,-145.005 114.599,-155.113 120.211,-150.929"/>
<text text-anchor="middle" x="190.604" y="-185.8" font-family="Times,serif" font-size="14.00">StreamsDatum</text>
</g>
<!-- persisters_mongo_reader -->
<g id="node4" class="node">
<title>persisters_mongo_reader</title>
<ellipse fill="none" stroke="black" cx="282" cy="-127" rx="84.0668" ry="18"/>
<text text-anchor="middle" x="282" y="-122.8" font-family="Times,serif" font-size="14.00">MongoPersistReader</text>
</g>
<!-- persisters_mongo_reader&#45;&gt;processors -->
<g id="edge4" class="edge">
<title>persisters_mongo_reader&#45;&gt;processors</title>
<path fill="none" stroke="black" d="M270.951,-145.029C260.31,-162.393 243.727,-189.452 229.163,-213.218"/>
<polygon fill="black" stroke="black" points="226.144,-211.446 223.903,-221.801 232.112,-215.104 226.144,-211.446"/>
<text text-anchor="middle" x="308.379" y="-185.8" font-family="Times,serif" font-size="14.00">StreamsDatum[String]</text>
</g>
<!-- mongo -->
<g id="node6" class="node">
<title>mongo</title>
<path fill="none" stroke="black" d="M177.39,-48.7273C177.39,-50.5331 165.113,-52 150,-52 134.887,-52 122.61,-50.5331 122.61,-48.7273 122.61,-48.7273 122.61,-19.2727 122.61,-19.2727 122.61,-17.4669 134.887,-16 150,-16 165.113,-16 177.39,-17.4669 177.39,-19.2727 177.39,-19.2727 177.39,-48.7273 177.39,-48.7273"/>
<path fill="none" stroke="black" d="M177.39,-48.7273C177.39,-46.9214 165.113,-45.4545 150,-45.4545 134.887,-45.4545 122.61,-46.9214 122.61,-48.7273"/>
<text text-anchor="middle" x="150" y="-29.8" font-family="Times,serif" font-size="14.00">mongo</text>
</g>
<!-- persisters_mongo_writer&#45;&gt;mongo -->
<g id="edge6" class="edge">
<title>persisters_mongo_writer&#45;&gt;mongo</title>
<path fill="none" stroke="black" d="M108.026,-109.069C115.603,-95.5184 126.134,-76.6837 134.752,-61.2705"/>
<polygon fill="black" stroke="black" points="138.002,-62.63 139.827,-52.1936 131.892,-59.2138 138.002,-62.63"/>
</g>
<!-- mongo&#45;&gt;persisters_mongo_reader -->
<g id="edge5" class="edge">
<title>mongo&#45;&gt;persisters_mongo_reader</title>
<path fill="none" stroke="black" d="M174.388,-51.1821C195.464,-66.0314 226.102,-87.6176 249.302,-103.963"/>
<polygon fill="black" stroke="black" points="247.29,-106.827 257.481,-109.725 251.322,-101.105 247.29,-106.827"/>
</g>
</g>
</svg>
