<?xml version="1.0" encoding="UTF-8" standalone="no"?>
<!DOCTYPE svg PUBLIC "-//W3C//DTD SVG 1.1//EN"
 "http://www.w3.org/Graphics/SVG/1.1/DTD/svg11.dtd">
<!-- Generated by graphviz version 2.39.20160214.2135 (20160214.2135)
 -->
<!-- Title: g Pages: 1 -->
<svg width="588pt" height="367pt"
 viewBox="0.00 0.00 588.00 367.00" xmlns="http://www.w3.org/2000/svg" xmlns:xlink="http://www.w3.org/1999/xlink">
<g id="graph0" class="graph" transform="scale(1 1) rotate(0) translate(4 363)">
<title>g</title>
<polygon fill="white" stroke="transparent" points="-4,4 -4,-363 584,-363 584,4 -4,4"/>
<g id="clust1" class="cluster">
<title>cluster_generators</title>
<polygon fill="none" stroke="black" stroke-dasharray="1,5" points="118,-277 118,-351 424,-351 424,-277 118,-277"/>
<text text-anchor="middle" x="271" y="-335.8" font-family="Times,serif" font-size="14.00">generators</text>
</g>
<g id="clust2" class="cluster">
<title>cluster_providers</title>
<polygon fill="none" stroke="black" points="8,-184 8,-258 572,-258 572,-184 8,-184"/>
<text text-anchor="middle" x="290" y="-242.8" font-family="Times,serif" font-size="14.00">providers</text>
</g>
<g id="clust3" class="cluster">
<title>cluster_processors</title>
<polygon fill="none" stroke="black" points="115,-78 115,-152 339,-152 339,-78 115,-78"/>
<text text-anchor="middle" x="227" y="-136.8" font-family="Times,serif" font-size="14.00">processors</text>
</g>
<!-- generators_gplus -->
<g id="node1" class="node">
<title>generators_gplus</title>
<ellipse fill="none" stroke="black" cx="271" cy="-303" rx="145.242" ry="18"/>
<text text-anchor="middle" x="271" y="-298.8" font-family="Times,serif" font-size="14.00">https://www.googleapis.com/gmail/v1</text>
</g>
<!-- providers_gplus_GPlusUserActivityProvider -->
<g id="node2" class="node">
<title>providers_gplus_GPlusUserActivityProvider</title>
<ellipse fill="none" stroke="black" cx="124" cy="-210" rx="107.737" ry="18"/>
<text text-anchor="middle" x="124" y="-205.8" font-family="Times,serif" font-size="14.00">GPlusUserActivityProvider</text>
</g>
<!-- generators_gplus&#45;&gt;providers_gplus_GPlusUserActivityProvider -->
<g id="edge1" class="edge">
<title>generators_gplus&#45;&gt;providers_gplus_GPlusUserActivityProvider</title>
<path fill="none" stroke="black" d="M243.004,-285.289C219.606,-270.486 186.065,-249.266 160.551,-233.124"/>
<polygon fill="black" stroke="black" points="162.213,-230.034 151.891,-227.646 158.471,-235.95 162.213,-230.034"/>
</g>
<!-- providers_gplus_GPlusUserDataProvider -->
<g id="node3" class="node">
<title>providers_gplus_GPlusUserDataProvider</title>
<ellipse fill="none" stroke="black" cx="407" cy="-210" rx="156.974" ry="18"/>
<text text-anchor="middle" x="407" y="-205.8" font-family="Times,serif" font-size="14.00">providers_gplus_GPlusUserDataProvider</text>
</g>
<!-- generators_gplus&#45;&gt;providers_gplus_GPlusUserDataProvider -->
<g id="edge2" class="edge">
<title>generators_gplus&#45;&gt;providers_gplus_GPlusUserDataProvider</title>
<path fill="none" stroke="black" d="M296.901,-285.289C318.316,-270.644 348.916,-249.719 372.423,-233.645"/>
<polygon fill="black" stroke="black" points="374.454,-236.496 380.733,-227.962 370.502,-230.718 374.454,-236.496"/>
</g>
<!-- processors_gplus_activity -->
<g id="node4" class="node">
<title>processors_gplus_activity</title>
<ellipse fill="none" stroke="black" cx="227" cy="-104" rx="104.087" ry="18"/>
<text text-anchor="middle" x="227" y="-99.8" font-family="Times,serif" font-size="14.00">GooglePlusTypeConverter</text>
</g>
<!-- providers_gplus_GPlusUserActivityProvider&#45;&gt;processors_gplus_activity -->
<g id="edge3" class="edge">
<title>providers_gplus_GPlusUserActivityProvider&#45;&gt;processors_gplus_activity</title>
<path fill="none" stroke="black" d="M141.473,-192.019C158.193,-174.811 183.576,-148.688 202.35,-129.368"/>
<polygon fill="black" stroke="black" points="204.983,-131.681 209.442,-122.07 199.963,-126.802 204.983,-131.681"/>
<text text-anchor="middle" x="227.824" y="-162.8" font-family="Times,serif" font-size="14.00">c.g.a.s.p.m.Activity</text>
</g>
<!-- providers_gplus_GPlusUserDataProvider&#45;&gt;processors_gplus_activity -->
<g id="edge4" class="edge">
<title>providers_gplus_GPlusUserDataProvider&#45;&gt;processors_gplus_activity</title>
<path fill="none" stroke="black" d="M376.872,-192.258C346.318,-174.265 298.914,-146.349 265.618,-126.742"/>
<polygon fill="black" stroke="black" points="267.02,-123.506 256.627,-121.447 263.468,-129.537 267.02,-123.506"/>
<text text-anchor="middle" x="393.938" y="-162.8" font-family="Times,serif" font-size="14.00">c.g.a.s.p.m.Person</text>
</g>
<!-- persisters -->
<g id="node5" class="node">
<title>persisters</title>
<path fill="none" stroke="black" d="M261.376,-32.7273C261.376,-34.5331 245.968,-36 227,-36 208.032,-36 192.624,-34.5331 192.624,-32.7273 192.624,-32.7273 192.624,-3.27273 192.624,-3.27273 192.624,-1.46689 208.032,-0 227,-0 245.968,-0 261.376,-1.46689 261.376,-3.27273 261.376,-3.27273 261.376,-32.7273 261.376,-32.7273"/>
<path fill="none" stroke="black" d="M261.376,-32.7273C261.376,-30.9214 245.968,-29.4545 227,-29.4545 208.032,-29.4545 192.624,-30.9214 192.624,-32.7273"/>
<text text-anchor="middle" x="227" y="-13.8" font-family="Times,serif" font-size="14.00">persisters</text>
</g>
<!-- processors_gplus_activity&#45;&gt;persisters -->
<g id="edge5" class="edge">
<title>processors_gplus_activity&#45;&gt;persisters</title>
<path fill="none" stroke="black" d="M227,-85.7616C227,-74.3597 227,-59.4342 227,-46.494"/>
<polygon fill="black" stroke="black" points="230.5,-46.2121 227,-36.2121 223.5,-46.2121 230.5,-46.2121"/>
<text text-anchor="middle" x="273.467" y="-56.8" font-family="Times,serif" font-size="14.00">o.a.s.p.j.Activity</text>
</g>
</g>
</svg>
