<?xml version="1.0" encoding="UTF-8" standalone="no"?>
<!DOCTYPE svg PUBLIC "-//W3C//DTD SVG 1.1//EN"
 "http://www.w3.org/Graphics/SVG/1.1/DTD/svg11.dtd">
<!-- Generated by graphviz version 2.39.20160214.2135 (20160214.2135)
 -->
<!-- Title: g Pages: 1 -->
<svg width="957pt" height="395pt"
 viewBox="0.00 0.00 957.00 395.00" xmlns="http://www.w3.org/2000/svg" xmlns:xlink="http://www.w3.org/1999/xlink">
<g id="graph0" class="graph" transform="scale(1 1) rotate(0) translate(4 391)">
<title>g</title>
<polygon fill="white" stroke="transparent" points="-4,4 -4,-391 953,-391 953,4 -4,4"/>
<g id="clust1" class="cluster">
<title>cluster_generators</title>
<polygon fill="none" stroke="black" stroke-dasharray="1,5" points="394,-305 394,-379 586,-379 586,-305 394,-305"/>
<text text-anchor="middle" x="490" y="-363.8" font-family="Times,serif" font-size="14.00">generators</text>
</g>
<g id="clust2" class="cluster">
<title>cluster_providers</title>
<polygon fill="none" stroke="black" points="8,-212 8,-286 941,-286 941,-212 8,-212"/>
<text text-anchor="middle" x="474.5" y="-270.8" font-family="Times,serif" font-size="14.00">providers</text>
</g>
<g id="clust3" class="cluster">
<title>cluster_processors</title>
<polygon fill="none" stroke="black" points="78,-106 78,-180 594,-180 594,-106 78,-106"/>
<text text-anchor="middle" x="336" y="-164.8" font-family="Times,serif" font-size="14.00">processors</text>
</g>
<!-- generators_twitter -->
<g id="node1" class="node">
<title>generators_twitter</title>
<ellipse fill="none" stroke="black" cx="490" cy="-331" rx="87.9585" ry="18"/>
<text text-anchor="middle" x="490" y="-326.8" font-family="Times,serif" font-size="14.00">https://api.twitter.com</text>
</g>
<!-- providers_twitter_userstream -->
<g id="node2" class="node">
<title>providers_twitter_userstream</title>
<ellipse fill="none" stroke="black" cx="827" cy="-238" rx="106.491" ry="18"/>
<text text-anchor="middle" x="827" y="-233.8" font-family="Times,serif" font-size="14.00">TwitterUserstreamProvider</text>
</g>
<!-- generators_twitter&#45;&gt;providers_twitter_userstream -->
<g id="edge1" class="edge">
<title>generators_twitter&#45;&gt;providers_twitter_userstream</title>
<path fill="none" stroke="black" d="M560.532,-320.187C604.359,-312.598 661.572,-301.106 711,-286 734.859,-278.708 760.574,-268.34 781.715,-259.105"/>
<polygon fill="black" stroke="black" points="783.357,-262.206 791.083,-254.957 780.522,-255.805 783.357,-262.206"/>
</g>
<!-- providers_twitter_userinfo -->
<g id="node3" class="node">
<title>providers_twitter_userinfo</title>
<ellipse fill="none" stroke="black" cx="141" cy="-238" rx="124.824" ry="18"/>
<text text-anchor="middle" x="141" y="-233.8" font-family="Times,serif" font-size="14.00">TwitterUserInformationProvider</text>
</g>
<!-- generators_twitter&#45;&gt;providers_twitter_userinfo -->
<g id="edge4" class="edge">
<title>generators_twitter&#45;&gt;providers_twitter_userinfo</title>
<path fill="none" stroke="black" d="M422.6,-319.361C379.937,-311.388 323.812,-299.78 275,-286 247.602,-278.265 217.725,-267.771 193.149,-258.567"/>
<polygon fill="black" stroke="black" points="194.253,-255.243 183.661,-254.98 191.777,-261.79 194.253,-255.243"/>
</g>
<!-- providers_twitter_timeline -->
<g id="node4" class="node">
<title>providers_twitter_timeline</title>
<ellipse fill="none" stroke="black" cx="382" cy="-238" rx="97.6831" ry="18"/>
<text text-anchor="middle" x="382" y="-233.8" font-family="Times,serif" font-size="14.00">TwitterTimelineProvider</text>
</g>
<!-- generators_twitter&#45;&gt;providers_twitter_timeline -->
<g id="edge2" class="edge">
<title>generators_twitter&#45;&gt;providers_twitter_timeline</title>
<path fill="none" stroke="black" d="M469.432,-313.289C452.617,-298.809 428.671,-278.189 410.09,-262.189"/>
<polygon fill="black" stroke="black" points="412.353,-259.519 402.492,-255.646 407.785,-264.823 412.353,-259.519"/>
</g>
<!-- providers_twitter_following -->
<g id="node5" class="node">
<title>providers_twitter_following</title>
<ellipse fill="none" stroke="black" cx="600" cy="-238" rx="102.174" ry="18"/>
<text text-anchor="middle" x="600" y="-233.8" font-family="Times,serif" font-size="14.00">TwitterFollowingProvider</text>
</g>
<!-- generators_twitter&#45;&gt;providers_twitter_following -->
<g id="edge3" class="edge">
<title>generators_twitter&#45;&gt;providers_twitter_following</title>
<path fill="none" stroke="black" d="M510.69,-313.507C527.789,-299.051 552.255,-278.366 571.257,-262.301"/>
<polygon fill="black" stroke="black" points="573.652,-264.859 579.029,-255.73 569.132,-259.514 573.652,-264.859"/>
</g>
<!-- processors_twitter_activity -->
<g id="node6" class="node">
<title>processors_twitter_activity</title>
<ellipse fill="none" stroke="black" cx="477" cy="-132" rx="108.672" ry="18"/>
<text text-anchor="middle" x="477" y="-127.8" font-family="Times,serif" font-size="14.00">ActivityConverterProcessor</text>
</g>
<!-- providers_twitter_userstream&#45;&gt;processors_twitter_activity -->
<g id="edge6" class="edge">
<title>providers_twitter_userstream&#45;&gt;processors_twitter_activity</title>
<path fill="none" stroke="black" d="M774.979,-222.245C711.998,-203.171 606.046,-171.083 538.919,-150.753"/>
<polygon fill="black" stroke="black" points="539.891,-147.39 529.306,-147.841 537.862,-154.09 539.891,-147.39"/>
<text text-anchor="middle" x="738.277" y="-190.8" font-family="Times,serif" font-size="14.00">o.a.s.t.Tweet</text>
</g>
<!-- processors_twitter_activityobject -->
<g id="node7" class="node">
<title>processors_twitter_activityobject</title>
<ellipse fill="none" stroke="black" cx="218" cy="-132" rx="132.317" ry="18"/>
<text text-anchor="middle" x="218" y="-127.8" font-family="Times,serif" font-size="14.00">ActivityObjectConverterProcessor</text>
</g>
<!-- providers_twitter_userinfo&#45;&gt;processors_twitter_activityobject -->
<g id="edge5" class="edge">
<title>providers_twitter_userinfo&#45;&gt;processors_twitter_activityobject</title>
<path fill="none" stroke="black" d="M154.062,-220.019C166.341,-203.115 184.868,-177.61 198.823,-158.4"/>
<polygon fill="black" stroke="black" points="201.828,-160.217 204.874,-150.07 196.165,-156.103 201.828,-160.217"/>
<text text-anchor="middle" x="209.493" y="-190.8" font-family="Times,serif" font-size="14.00">o.a.s.t.User</text>
</g>
<!-- providers_twitter_timeline&#45;&gt;processors_twitter_activity -->
<g id="edge7" class="edge">
<title>providers_twitter_timeline&#45;&gt;processors_twitter_activity</title>
<path fill="none" stroke="black" d="M398.115,-220.019C413.469,-202.887 436.742,-176.919 454.035,-157.624"/>
<polygon fill="black" stroke="black" points="456.738,-159.853 460.805,-150.07 451.525,-155.181 456.738,-159.853"/>
<text text-anchor="middle" x="461.277" y="-190.8" font-family="Times,serif" font-size="14.00">o.a.s.t.Tweet</text>
</g>
<!-- providers_twitter_following&#45;&gt;processors_twitter_activity -->
<g id="edge8" class="edge">
<title>providers_twitter_following&#45;&gt;processors_twitter_activity</title>
<path fill="none" stroke="black" d="M579.413,-220.258C559.102,-202.755 527.897,-175.862 505.269,-156.362"/>
<polygon fill="black" stroke="black" points="507.515,-153.677 497.655,-149.8 502.945,-158.979 507.515,-153.677"/>
<text text-anchor="middle" x="594.114" y="-190.8" font-family="Times,serif" font-size="14.00">o.a.s.t.Follow</text>
</g>
<!-- persisters -->
<g id="node8" class="node">
<title>persisters</title>
<path fill="none" stroke="black" d="M401.376,-32.7273C401.376,-34.5331 385.968,-36 367,-36 348.032,-36 332.624,-34.5331 332.624,-32.7273 332.624,-32.7273 332.624,-3.27273 332.624,-3.27273 332.624,-1.46689 348.032,-0 367,-0 385.968,-0 401.376,-1.46689 401.376,-3.27273 401.376,-3.27273 401.376,-32.7273 401.376,-32.7273"/>
<path fill="none" stroke="black" d="M401.376,-32.7273C401.376,-30.9214 385.968,-29.4545 367,-29.4545 348.032,-29.4545 332.624,-30.9214 332.624,-32.7273"/>
<text text-anchor="middle" x="367" y="-13.8" font-family="Times,serif" font-size="14.00">persisters</text>
</g>
<!-- processors_twitter_activity&#45;&gt;persisters -->
<g id="edge10" class="edge">
<title>processors_twitter_activity&#45;&gt;persisters</title>
<path fill="none" stroke="black" d="M459.812,-114.188C441.435,-95.1416 412.14,-64.7819 391.384,-43.2705"/>
<polygon fill="black" stroke="black" points="393.892,-40.8296 384.43,-36.0636 388.855,-45.6902 393.892,-40.8296"/>
<text text-anchor="middle" x="484.364" y="-84.8" font-family="Times,serif" font-size="14.00">o.a.s.p.j.Post</text>
<text text-anchor="middle" x="484.364" y="-70.8" font-family="Times,serif" font-size="14.00">o.a.s.p.j.Share</text>
<text text-anchor="middle" x="484.364" y="-56.8" font-family="Times,serif" font-size="14.00">o.a.s.p.j.Follow</text>
</g>
<!-- processors_twitter_activityobject&#45;&gt;persisters -->
<g id="edge9" class="edge">
<title>processors_twitter_activityobject&#45;&gt;persisters</title>
<path fill="none" stroke="black" d="M241.281,-114.188C266.758,-94.6949 307.725,-63.3517 335.93,-41.7718"/>
<polygon fill="black" stroke="black" points="338.067,-44.5437 343.882,-35.6874 333.813,-38.9842 338.067,-44.5437"/>
<text text-anchor="middle" x="356.133" y="-70.8" font-family="Times,serif" font-size="14.00">o.a.s.p.j.Page</text>
</g>
</g>
</svg>
