<?xml version="1.0" encoding="UTF-8" standalone="no"?>
<!DOCTYPE svg PUBLIC "-//W3C//DTD SVG 1.1//EN"
 "http://www.w3.org/Graphics/SVG/1.1/DTD/svg11.dtd">
<!-- Generated by graphviz version 2.39.20160214.2135 (20160214.2135)
 -->
<!-- Title: g Pages: 1 -->
<svg width="475pt" height="406pt"
 viewBox="0.00 0.00 475.00 406.00" xmlns="http://www.w3.org/2000/svg" xmlns:xlink="http://www.w3.org/1999/xlink">
<g id="graph0" class="graph" transform="scale(1 1) rotate(0) translate(4 402)">
<title>g</title>
<polygon fill="white" stroke="transparent" points="-4,4 -4,-402 471,-402 471,4 -4,4"/>
<g id="clust1" class="cluster">
<title>cluster_upstream</title>
<polygon fill="none" stroke="black" points="33,-316 33,-390 459,-390 459,-316 33,-316"/>
<text text-anchor="middle" x="246" y="-374.8" font-family="Times,serif" font-size="14.00">Upstream Systems</text>
</g>
<g id="clust2" class="cluster">
<title>cluster_streams</title>
<polygon fill="none" stroke="black" points="87,-90 87,-308 333,-308 333,-90 87,-90"/>
<text text-anchor="middle" x="210" y="-292.8" font-family="Times,serif" font-size="14.00">Apache Streams Pipelines</text>
</g>
<g id="clust3" class="cluster">
<title>cluster_downstream</title>
<polygon fill="none" stroke="black" points="8,-8 8,-82 318,-82 318,-8 8,-8"/>
<text text-anchor="middle" x="163" y="-66.8" font-family="Times,serif" font-size="14.00">Downstream Systems</text>
</g>
<!-- upstream_databases -->
<g id="node1" class="node">
<title>upstream_databases</title>
<path fill="none" stroke="black" d="M451.252,-356.727C451.252,-358.533 435.003,-360 415,-360 394.997,-360 378.748,-358.533 378.748,-356.727 378.748,-356.727 378.748,-327.273 378.748,-327.273 378.748,-325.467 394.997,-324 415,-324 435.003,-324 451.252,-325.467 451.252,-327.273 451.252,-327.273 451.252,-356.727 451.252,-356.727"/>
<path fill="none" stroke="black" d="M451.252,-356.727C451.252,-354.921 435.003,-353.455 415,-353.455 394.997,-353.455 378.748,-354.921 378.748,-356.727"/>
<text text-anchor="middle" x="415" y="-337.8" font-family="Times,serif" font-size="14.00">Databases</text>
</g>
<!-- persistReaders -->
<g id="node6" class="node">
<title>persistReaders</title>
<ellipse fill="none" stroke="black" cx="263" cy="-260" rx="62.3494" ry="18"/>
<text text-anchor="middle" x="263" y="-255.8" font-family="Times,serif" font-size="14.00">PersistReaders</text>
</g>
<!-- upstream_databases&#45;&gt;persistReaders -->
<g id="edge2" class="edge">
<title>upstream_databases&#45;&gt;persistReaders</title>
<path fill="none" stroke="black" d="M385.569,-324.76C380.401,-321.801 375.059,-318.784 370,-316 348.017,-303.904 323.204,-290.879 303.012,-280.438"/>
<polygon fill="black" stroke="black" points="304.578,-277.307 294.086,-275.835 301.369,-283.529 304.578,-277.307"/>
</g>
<!-- upstream_filesystems -->
<g id="node2" class="node">
<title>upstream_filesystems</title>
<polygon fill="none" stroke="black" points="361.117,-360 290.883,-360 290.883,-364 278.883,-364 278.883,-324 361.117,-324 361.117,-360"/>
<polyline fill="none" stroke="black" points="278.883,-360 290.883,-360 "/>
<text text-anchor="middle" x="320" y="-337.8" font-family="Times,serif" font-size="14.00">Filesystems</text>
</g>
<!-- upstream_filesystems&#45;&gt;persistReaders -->
<g id="edge3" class="edge">
<title>upstream_filesystems&#45;&gt;persistReaders</title>
<path fill="none" stroke="black" d="M307.35,-323.802C299.696,-312.791 289.806,-298.563 281.308,-286.338"/>
<polygon fill="black" stroke="black" points="284,-284.079 275.419,-277.865 278.253,-288.074 284,-284.079"/>
</g>
<!-- upstream_generators -->
<g id="node3" class="node">
<title>upstream_generators</title>
<ellipse fill="none" stroke="black" cx="90" cy="-342" rx="48.8014" ry="18"/>
<text text-anchor="middle" x="90" y="-337.8" font-family="Times,serif" font-size="14.00">Generators</text>
</g>
<!-- providers -->
<g id="node5" class="node">
<title>providers</title>
<ellipse fill="none" stroke="black" cx="139" cy="-260" rx="44.0078" ry="18"/>
<text text-anchor="middle" x="139" y="-255.8" font-family="Times,serif" font-size="14.00">Providers</text>
</g>
<!-- upstream_generators&#45;&gt;providers -->
<g id="edge1" class="edge">
<title>upstream_generators&#45;&gt;providers</title>
<path fill="none" stroke="black" d="M100.632,-324.207C107.182,-313.247 115.703,-298.987 123.05,-286.691"/>
<polygon fill="black" stroke="black" points="126.263,-288.138 128.388,-277.758 120.254,-284.547 126.263,-288.138"/>
</g>
<!-- upstream_queues -->
<g id="node4" class="node">
<title>upstream_queues</title>
<polygon fill="none" stroke="black" points="239.136,-360 178.864,-360 157.398,-324 260.602,-324 239.136,-360"/>
<text text-anchor="middle" x="209" y="-337.8" font-family="Times,serif" font-size="14.00">Queues</text>
</g>
<!-- upstream_queues&#45;&gt;persistReaders -->
<g id="edge4" class="edge">
<title>upstream_queues&#45;&gt;persistReaders</title>
<path fill="none" stroke="black" d="M220.984,-323.802C228.235,-312.791 237.605,-298.563 245.655,-286.338"/>
<polygon fill="black" stroke="black" points="248.658,-288.142 251.235,-277.865 242.812,-284.292 248.658,-288.142"/>
</g>
<!-- processors -->
<g id="node7" class="node">
<title>processors</title>
<ellipse fill="none" stroke="black" cx="179" cy="-188" rx="47.8668" ry="18"/>
<text text-anchor="middle" x="179" y="-183.8" font-family="Times,serif" font-size="14.00">Processors</text>
</g>
<!-- providers&#45;&gt;processors -->
<g id="edge5" class="edge">
<title>providers&#45;&gt;processors</title>
<path fill="none" stroke="black" d="M148.888,-242.202C153.503,-233.894 159.094,-223.832 164.198,-214.643"/>
<polygon fill="black" stroke="black" points="167.291,-216.284 169.087,-205.843 161.171,-212.884 167.291,-216.284"/>
</g>
<!-- persistReaders&#45;&gt;processors -->
<g id="edge6" class="edge">
<title>persistReaders&#45;&gt;processors</title>
<path fill="none" stroke="black" d="M243.093,-242.937C232.135,-233.544 218.371,-221.747 206.41,-211.494"/>
<polygon fill="black" stroke="black" points="208.345,-208.543 198.474,-204.692 203.789,-213.857 208.345,-208.543"/>
</g>
<!-- processors&#45;&gt;processors -->
<g id="edge7" class="edge">
<title>processors&#45;&gt;processors</title>
<path fill="none" stroke="black" d="M212.246,-201.025C229.437,-203.029 244.933,-198.688 244.933,-188 244.933,-179.483 235.093,-174.996 222.397,-174.539"/>
<polygon fill="black" stroke="black" points="222.087,-171.049 212.246,-174.975 222.387,-178.042 222.087,-171.049"/>
</g>
<!-- persistWriters -->
<g id="node8" class="node">
<title>persistWriters</title>
<ellipse fill="none" stroke="black" cx="179" cy="-116" rx="59.7202" ry="18"/>
<text text-anchor="middle" x="179" y="-111.8" font-family="Times,serif" font-size="14.00">PersistWriters</text>
</g>
<!-- processors&#45;&gt;persistWriters -->
<g id="edge8" class="edge">
<title>processors&#45;&gt;persistWriters</title>
<path fill="none" stroke="black" d="M179,-169.831C179,-162.131 179,-152.974 179,-144.417"/>
<polygon fill="black" stroke="black" points="182.5,-144.413 179,-134.413 175.5,-144.413 182.5,-144.413"/>
</g>
<!-- downstream_databases -->
<g id="node9" class="node">
<title>downstream_databases</title>
<path fill="none" stroke="black" d="M310.252,-48.7273C310.252,-50.5331 294.003,-52 274,-52 253.997,-52 237.748,-50.5331 237.748,-48.7273 237.748,-48.7273 237.748,-19.2727 237.748,-19.2727 237.748,-17.4669 253.997,-16 274,-16 294.003,-16 310.252,-17.4669 310.252,-19.2727 310.252,-19.2727 310.252,-48.7273 310.252,-48.7273"/>
<path fill="none" stroke="black" d="M310.252,-48.7273C310.252,-46.9214 294.003,-45.4545 274,-45.4545 253.997,-45.4545 237.748,-46.9214 237.748,-48.7273"/>
<text text-anchor="middle" x="274" y="-29.8" font-family="Times,serif" font-size="14.00">Databases</text>
</g>
<!-- persistWriters&#45;&gt;downstream_databases -->
<g id="edge9" class="edge">
<title>persistWriters&#45;&gt;downstream_databases</title>
<path fill="none" stroke="black" d="M205.231,-99.7444C213.138,-94.4324 221.66,-88.2762 229,-82 236.778,-75.3492 244.624,-67.4744 251.537,-60.0471"/>
<polygon fill="black" stroke="black" points="254.493,-61.9981 258.625,-52.2422 249.311,-57.292 254.493,-61.9981"/>
</g>
<!-- downstream_filesystems -->
<g id="node10" class="node">
<title>downstream_filesystems</title>
<polygon fill="none" stroke="black" points="220.117,-52 149.883,-52 149.883,-56 137.883,-56 137.883,-16 220.117,-16 220.117,-52"/>
<polyline fill="none" stroke="black" points="137.883,-52 149.883,-52 "/>
<text text-anchor="middle" x="179" y="-29.8" font-family="Times,serif" font-size="14.00">Filesystems</text>
</g>
<!-- persistWriters&#45;&gt;downstream_filesystems -->
<g id="edge10" class="edge">
<title>persistWriters&#45;&gt;downstream_filesystems</title>
<path fill="none" stroke="black" d="M179,-97.8015C179,-87.3976 179,-74.1215 179,-62.3768"/>
<polygon fill="black" stroke="black" points="182.5,-62.1476 179,-52.1476 175.5,-62.1476 182.5,-62.1476"/>
</g>
<!-- downstream_queues -->
<g id="node11" class="node">
<title>downstream_queues</title>
<polygon fill="none" stroke="black" points="98.1365,-52 37.8635,-52 16.398,-16 119.602,-16 98.1365,-52"/>
<text text-anchor="middle" x="68" y="-29.8" font-family="Times,serif" font-size="14.00">Queues</text>
</g>
<!-- persistWriters&#45;&gt;downstream_queues -->
<g id="edge11" class="edge">
<title>persistWriters&#45;&gt;downstream_queues</title>
<path fill="none" stroke="black" d="M154.094,-99.5613C146.007,-94.0917 137.047,-87.8908 129,-82 118.806,-74.5372 107.898,-66.1031 98.1652,-58.4098"/>
<polygon fill="black" stroke="black" points="100.313,-55.6458 90.308,-52.1593 95.9549,-61.1239 100.313,-55.6458"/>
</g>
</g>
</svg>
