<?xml version="1.0" encoding="UTF-8" standalone="no"?>
<!DOCTYPE svg PUBLIC "-//W3C//DTD SVG 1.1//EN"
 "http://www.w3.org/Graphics/SVG/1.1/DTD/svg11.dtd">
<!-- Generated by graphviz version 2.39.20160214.2135 (20160214.2135)
 -->
<!-- Title: g Pages: 1 -->
<svg width="918pt" height="401pt"
 viewBox="0.00 0.00 918.23 400.99" xmlns="http://www.w3.org/2000/svg" xmlns:xlink="http://www.w3.org/1999/xlink">
<g id="graph0" class="graph" transform="scale(1 1) rotate(0) translate(4 396.994)">
<title>g</title>
<polygon fill="white" stroke="transparent" points="-4,4 -4,-396.994 914.233,-396.994 914.233,4 -4,4"/>
<g id="clust1" class="cluster">
<title>cluster_git</title>
<polygon fill="none" stroke="black" points="8,-44.9944 8,-172.994 140.297,-172.994 140.297,-44.9944 8,-44.9944"/>
<text text-anchor="middle" x="74.1484" y="-157.794" font-family="Times,serif" font-size="14.00">git</text>
</g>
<g id="clust2" class="cluster">
<title>cluster_jenkins</title>
<polygon fill="none" stroke="black" points="160.297,-66.9944 160.297,-248.994 749.937,-248.994 749.937,-66.9944 160.297,-66.9944"/>
<text text-anchor="middle" x="455.117" y="-233.794" font-family="Times,serif" font-size="14.00">jenkins</text>
</g>
<g id="clust3" class="cluster">
<title>cluster_maven</title>
<polygon fill="none" stroke="black" points="578.266,-256.994 578.266,-384.994 710.563,-384.994 710.563,-256.994 578.266,-256.994"/>
<text text-anchor="middle" x="644.414" y="-369.794" font-family="Times,serif" font-size="14.00">maven</text>
</g>
<g id="clust4" class="cluster">
<title>cluster_site</title>
<polygon fill="none" stroke="black" points="769.937,-89.9944 769.937,-217.994 902.233,-217.994 902.233,-89.9944 769.937,-89.9944"/>
<text text-anchor="middle" x="836.085" y="-202.794" font-family="Times,serif" font-size="14.00">site</text>
</g>
<!-- git_streams_project -->
<g id="node1" class="node">
<title>git_streams_project</title>
<g id="a_node1"><a xlink:href="https://github.com/apache/streams" xlink:title="streams">
<polygon fill="none" stroke="black" points="103.415,-142.994 44.8823,-142.994 44.8823,-106.994 103.415,-106.994 103.415,-142.994"/>
<text text-anchor="middle" x="74.1484" y="-120.794" font-family="Times,serif" font-size="14.00">streams</text>
</a>
</g>
</g>
<!-- jenkins_streams_trunk -->
<g id="node3" class="node">
<title>jenkins_streams_trunk</title>
<g id="a_node3"><a xlink:href="https://builds.apache.org/job/streams-project" xlink:title="streams&#45;project">
<ellipse fill="none" stroke="black" cx="232.915" cy="-200.994" rx="64.7372" ry="18"/>
<text text-anchor="middle" x="232.915" y="-196.794" font-family="Times,serif" font-size="14.00">streams&#45;project</text>
</a>
</g>
</g>
<!-- git_streams_project&#45;&gt;jenkins_streams_trunk -->
<g id="edge1" class="edge">
<title>git_streams_project&#45;&gt;jenkins_streams_trunk</title>
<path fill="none" stroke="black" stroke-dasharray="5,2" d="M103.446,-140.483C120.017,-149.111 141.185,-159.912 160.297,-168.994 169.163,-173.208 178.719,-177.555 187.894,-181.634"/>
<polygon fill="black" stroke="black" points="186.711,-184.938 197.273,-185.772 189.536,-178.533 186.711,-184.938"/>
</g>
<!-- jenkins_streams_trunk_verify -->
<g id="node4" class="node">
<title>jenkins_streams_trunk_verify</title>
<g id="a_node4"><a xlink:href="https://builds.apache.org/job/streams-project-verify" xlink:title="streams&#45;project&#45;verify">
<ellipse fill="none" stroke="black" cx="422.213" cy="-200.994" rx="88.8583" ry="18"/>
<text text-anchor="middle" x="422.213" y="-196.794" font-family="Times,serif" font-size="14.00">streams&#45;project&#45;verify</text>
</a>
</g>
</g>
<!-- git_streams_project&#45;&gt;jenkins_streams_trunk_verify -->
<g id="edge3" class="edge">
<title>git_streams_project&#45;&gt;jenkins_streams_trunk_verify</title>
<path fill="none" stroke="black" stroke-dasharray="5,2" d="M103.524,-131.409C157.873,-143.276 275.507,-168.961 351.65,-185.587"/>
<polygon fill="black" stroke="black" points="351.129,-189.056 361.646,-187.77 352.622,-182.217 351.129,-189.056"/>
</g>
<!-- jenkins_streams_project_site -->
<g id="node5" class="node">
<title>jenkins_streams_project_site</title>
<g id="a_node5"><a xlink:href="https://builds.apache.org/job/streams-project-site" xlink:title="streams&#45;project&#45;site">
<ellipse fill="none" stroke="black" cx="422.213" cy="-146.994" rx="79.6885" ry="18"/>
<text text-anchor="middle" x="422.213" y="-142.794" font-family="Times,serif" font-size="14.00">streams&#45;project&#45;site</text>
</a>
</g>
</g>
<!-- git_streams_project&#45;&gt;jenkins_streams_project_site -->
<g id="edge2" class="edge">
<title>git_streams_project&#45;&gt;jenkins_streams_project_site</title>
<path fill="none" stroke="black" stroke-dasharray="5,2" d="M103.524,-126.851C154.109,-130.048 259.515,-136.711 335.266,-141.499"/>
<polygon fill="black" stroke="black" points="335.081,-144.994 345.282,-142.132 335.523,-138.008 335.081,-144.994"/>
</g>
<!-- git_streams_examples -->
<g id="node2" class="node">
<title>git_streams_examples</title>
<g id="a_node2"><a xlink:href="https://github.com/apache/streams-examples" xlink:title="streams&#45;examples">
<polygon fill="none" stroke="black" points="132.446,-88.9944 15.8512,-88.9944 15.8512,-52.9944 132.446,-52.9944 132.446,-88.9944"/>
<text text-anchor="middle" x="74.1484" y="-66.7944" font-family="Times,serif" font-size="14.00">streams&#45;examples</text>
</a>
</g>
</g>
<!-- jenkins_streams_examples -->
<g id="node6" class="node">
<title>jenkins_streams_examples</title>
<g id="a_node6"><a xlink:href="https://builds.apache.org/job/streams-examples" xlink:title="streams&#45;examples">
<ellipse fill="none" stroke="black" cx="422.213" cy="-92.9944" rx="73.4239" ry="18"/>
<text text-anchor="middle" x="422.213" y="-88.7944" font-family="Times,serif" font-size="14.00">streams&#45;examples</text>
</a>
</g>
</g>
<!-- git_streams_examples&#45;&gt;jenkins_streams_examples -->
<g id="edge4" class="edge">
<title>git_streams_examples&#45;&gt;jenkins_streams_examples</title>
<path fill="none" stroke="black" stroke-dasharray="5,2" d="M132.407,-74.6767C189.445,-78.282 276.849,-83.8065 340.758,-87.8459"/>
<polygon fill="black" stroke="black" points="340.604,-91.3431 350.805,-88.481 341.045,-84.357 340.604,-91.3431"/>
</g>
<!-- jenkins_streams_examples_verify -->
<g id="node7" class="node">
<title>jenkins_streams_examples_verify</title>
<g id="a_node7"><a xlink:href="https://builds.apache.org/job/streams-examples-verify" xlink:title="streams&#45;examples&#45;verify">
<ellipse fill="none" stroke="black" cx="644.414" cy="-146.994" rx="97.5448" ry="18"/>
<text text-anchor="middle" x="644.414" y="-142.794" font-family="Times,serif" font-size="14.00">streams&#45;examples&#45;verify</text>
</a>
</g>
</g>
<!-- git_streams_examples&#45;&gt;jenkins_streams_examples_verify -->
<g id="edge5" class="edge">
<title>git_streams_examples&#45;&gt;jenkins_streams_examples_verify</title>
<path fill="none" stroke="black" stroke-dasharray="5,2" d="M132.377,-63.5346C235.907,-51.3745 447.128,-31.869 510.892,-65.9944 536.323,-79.6049 523.524,-103.084 546.892,-119.994 552.486,-124.043 558.661,-127.484 565.107,-130.41"/>
<polygon fill="black" stroke="black" points="564.127,-133.791 574.708,-134.338 566.778,-127.312 564.127,-133.791"/>
</g>
<!-- jenkins_streams_examples_site -->
<g id="node8" class="node">
<title>jenkins_streams_examples_site</title>
<g id="a_node8"><a xlink:href="https://builds.apache.org/job/streams-examples-site" xlink:title="streams&#45;examples&#45;site">
<ellipse fill="none" stroke="black" cx="644.414" cy="-92.9944" rx="88.8756" ry="18"/>
<text text-anchor="middle" x="644.414" y="-88.7944" font-family="Times,serif" font-size="14.00">streams&#45;examples&#45;site</text>
</a>
</g>
</g>
<!-- git_streams_examples&#45;&gt;jenkins_streams_examples_site -->
<g id="edge6" class="edge">
<title>git_streams_examples&#45;&gt;jenkins_streams_examples_site</title>
<path fill="none" stroke="black" stroke-dasharray="5,2" d="M101.166,-52.9938C117.523,-43.1951 139.233,-32.0621 160.297,-26.9944 311.794,9.45439 359.159,8.45894 510.892,-26.9944 546.48,-35.3099 583.471,-54.5608 609.468,-70.1378"/>
<polygon fill="black" stroke="black" points="607.828,-73.2374 618.185,-75.4704 611.481,-67.2661 607.828,-73.2374"/>
</g>
<!-- jenkins_streams_trunk&#45;&gt;jenkins_streams_trunk_verify -->
<g id="edge11" class="edge">
<title>jenkins_streams_trunk&#45;&gt;jenkins_streams_trunk_verify</title>
<path fill="none" stroke="black" stroke-dasharray="1,5" d="M297.796,-200.994C306.027,-200.994 314.592,-200.994 323.206,-200.994"/>
<polygon fill="black" stroke="black" points="323.323,-204.495 333.323,-200.994 323.323,-197.495 323.323,-204.495"/>
</g>
<!-- jenkins_streams_trunk&#45;&gt;jenkins_streams_project_site -->
<g id="edge12" class="edge">
<title>jenkins_streams_trunk&#45;&gt;jenkins_streams_project_site</title>
<path fill="none" stroke="black" stroke-dasharray="1,5" d="M278.257,-188.06C303.585,-180.835 335.449,-171.745 362.756,-163.956"/>
<polygon fill="black" stroke="black" points="363.933,-167.259 372.589,-161.15 362.013,-160.528 363.933,-167.259"/>
</g>
<!-- jenkins_streams_trunk&#45;&gt;jenkins_streams_examples -->
<g id="edge13" class="edge">
<title>jenkins_streams_trunk&#45;&gt;jenkins_streams_examples</title>
<path fill="none" stroke="black" stroke-dasharray="1,5" d="M250.312,-183.46C269.267,-165.254 301.224,-137.09 333.534,-119.994 341.682,-115.683 350.624,-111.949 359.596,-108.75"/>
<polygon fill="black" stroke="black" points="360.943,-111.99 369.307,-105.487 358.713,-105.355 360.943,-111.99"/>
</g>
<!-- maven_streams_project -->
<g id="node9" class="node">
<title>maven_streams_project</title>
<g id="a_node9"><a xlink:href="https://repository.apache.org/content/repositories/snapshots/org/apache/streams/streams-project/" xlink:title="streams&#45;project">
<polygon fill="none" stroke="black" points="695.711,-354.994 593.117,-354.994 593.117,-318.994 695.711,-318.994 695.711,-354.994"/>
<text text-anchor="middle" x="644.414" y="-332.794" font-family="Times,serif" font-size="14.00">streams&#45;project</text>
</a>
</g>
</g>
<!-- jenkins_streams_trunk&#45;&gt;maven_streams_project -->
<g id="edge7" class="edge">
<title>jenkins_streams_trunk&#45;&gt;maven_streams_project</title>
<path fill="none" stroke="black" d="M271.808,-215.398C330.875,-237.068 446.907,-278.833 546.892,-309.994 558.554,-313.629 571.075,-317.281 583.128,-320.673"/>
<polygon fill="black" stroke="black" points="582.542,-324.143 593.114,-323.455 584.42,-317.399 582.542,-324.143"/>
</g>
<!-- site_streams_project -->
<g id="node11" class="node">
<title>site_streams_project</title>
<g id="a_node11"><a xlink:href="http://streams.apache.org/site/latest/streams-project/" xlink:title="streams&#45;project">
<polygon fill="none" stroke="black" points="887.382,-187.994 784.788,-187.994 784.788,-151.994 887.382,-151.994 887.382,-187.994"/>
<text text-anchor="middle" x="836.085" y="-165.794" font-family="Times,serif" font-size="14.00">streams&#45;project</text>
</a>
</g>
</g>
<!-- jenkins_streams_project_site&#45;&gt;site_streams_project -->
<g id="edge9" class="edge">
<title>jenkins_streams_project_site&#45;&gt;site_streams_project</title>
<path fill="none" stroke="black" d="M473.979,-160.793C496.242,-166.052 522.668,-171.402 546.892,-173.994 636.621,-183.599 659.719,-176.088 749.937,-173.994 757.918,-173.809 766.312,-173.528 774.6,-173.198"/>
<polygon fill="black" stroke="black" points="774.779,-176.694 784.622,-172.775 774.484,-169.7 774.779,-176.694"/>
</g>
<!-- jenkins_streams_examples&#45;&gt;jenkins_streams_examples_verify -->
<g id="edge14" class="edge">
<title>jenkins_streams_examples&#45;&gt;jenkins_streams_examples_verify</title>
<path fill="none" stroke="black" stroke-dasharray="1,5" d="M474.59,-105.723C504.706,-113.042 542.9,-122.324 575.437,-130.231"/>
<polygon fill="black" stroke="black" points="574.794,-133.677 585.337,-132.637 576.447,-126.875 574.794,-133.677"/>
</g>
<!-- jenkins_streams_examples&#45;&gt;jenkins_streams_examples_site -->
<g id="edge15" class="edge">
<title>jenkins_streams_examples&#45;&gt;jenkins_streams_examples_site</title>
<path fill="none" stroke="black" stroke-dasharray="1,5" d="M495.894,-92.9944C511.691,-92.9944 528.631,-92.9944 545.213,-92.9944"/>
<polygon fill="black" stroke="black" points="545.478,-96.4945 555.478,-92.9944 545.478,-89.4945 545.478,-96.4945"/>
</g>
<!-- maven_streams_examples -->
<g id="node10" class="node">
<title>maven_streams_examples</title>
<g id="a_node10"><a xlink:href="https://repository.apache.org/content/repositories/snapshots/org/apache/streams/streams-examples/" xlink:title="streams&#45;examples">
<polygon fill="none" stroke="black" points="702.711,-300.994 586.117,-300.994 586.117,-264.994 702.711,-264.994 702.711,-300.994"/>
<text text-anchor="middle" x="644.414" y="-278.794" font-family="Times,serif" font-size="14.00">streams&#45;examples</text>
</a>
</g>
</g>
<!-- jenkins_streams_examples&#45;&gt;maven_streams_examples -->
<g id="edge8" class="edge">
<title>jenkins_streams_examples&#45;&gt;maven_streams_examples</title>
<path fill="none" stroke="black" d="M484.032,-102.932C494.024,-106.879 503.499,-112.368 510.892,-119.994 553.513,-163.967 504.334,-208.961 546.892,-252.994 554.985,-261.368 565.353,-267.42 576.293,-271.789"/>
<polygon fill="black" stroke="black" points="575.418,-275.191 586.012,-275.212 577.743,-268.589 575.418,-275.191"/>
</g>
<!-- site_streams_examples -->
<g id="node12" class="node">
<title>site_streams_examples</title>
<g id="a_node12"><a xlink:href="http://streams.apache.org/site/latest/streams-examples/" xlink:title="streams&#45;examples">
<polygon fill="none" stroke="black" points="894.382,-133.994 777.788,-133.994 777.788,-97.9944 894.382,-97.9944 894.382,-133.994"/>
<text text-anchor="middle" x="836.085" y="-111.794" font-family="Times,serif" font-size="14.00">streams&#45;examples</text>
</a>
</g>
</g>
<!-- jenkins_streams_examples_site&#45;&gt;site_streams_examples -->
<g id="edge10" class="edge">
<title>jenkins_streams_examples_site&#45;&gt;site_streams_examples</title>
<path fill="none" stroke="black" d="M720.994,-102.184C736.413,-104.034 752.526,-105.968 767.646,-107.782"/>
<polygon fill="black" stroke="black" points="767.588,-111.3 777.934,-109.016 768.422,-104.35 767.588,-111.3"/>
</g>
</g>
</svg>
