<?xml version="1.0" encoding="UTF-8" standalone="no"?>
<!DOCTYPE svg PUBLIC "-//W3C//DTD SVG 1.1//EN"
 "http://www.w3.org/Graphics/SVG/1.1/DTD/svg11.dtd">
<!-- Generated by graphviz version 2.39.20160214.2135 (20160214.2135)
 -->
<!-- Title: g Pages: 1 -->
<svg width="530pt" height="469pt"
 viewBox="0.00 0.00 530.00 468.90" xmlns="http://www.w3.org/2000/svg" xmlns:xlink="http://www.w3.org/1999/xlink">
<g id="graph0" class="graph" transform="scale(1 1) rotate(0) translate(4 464.901)">
<title>g</title>
<polygon fill="white" stroke="transparent" points="-4,4 -4,-464.901 526,-464.901 526,4 -4,4"/>
<g id="clust1" class="cluster">
<title>cluster_processors</title>
<polygon fill="none" stroke="black" points="8,-129.015 8,-203.015 514,-203.015 514,-129.015 8,-129.015"/>
<text text-anchor="middle" x="261" y="-187.815" font-family="Times,serif" font-size="14.00">processors</text>
</g>
<!-- generators -->
<g id="node1" class="node">
<title>generators</title>
<ellipse fill="none" stroke="black" cx="300" cy="-413.965" rx="46.8719" ry="46.8719"/>
<text text-anchor="middle" x="300" y="-409.765" font-family="Times,serif" font-size="14.00">generators</text>
</g>
<!-- providers -->
<g id="node2" class="node">
<title>providers</title>
<ellipse fill="none" stroke="black" cx="300" cy="-286.522" rx="43.5146" ry="43.5146"/>
<text text-anchor="middle" x="300" y="-282.322" font-family="Times,serif" font-size="14.00">providers</text>
</g>
<!-- generators&#45;&gt;providers -->
<g id="edge1" class="edge">
<title>generators&#45;&gt;providers</title>
<path fill="none" stroke="black" d="M300,-366.872C300,-358.208 300,-349.103 300,-340.262"/>
<polygon fill="black" stroke="black" points="303.5,-340.045 300,-330.045 296.5,-340.045 303.5,-340.045"/>
</g>
<!-- processors_jackson_CleanAdditionalPropertiesProcessor -->
<g id="node4" class="node">
<title>processors_jackson_CleanAdditionalPropertiesProcessor</title>
<ellipse fill="none" stroke="black" cx="155" cy="-155.015" rx="138.607" ry="18"/>
<text text-anchor="middle" x="155" y="-150.815" font-family="Times,serif" font-size="14.00">CleanAdditionalPropertiesProcessor</text>
</g>
<!-- providers&#45;&gt;processors_jackson_CleanAdditionalPropertiesProcessor -->
<g id="edge2" class="edge">
<title>providers&#45;&gt;processors_jackson_CleanAdditionalPropertiesProcessor</title>
<path fill="none" stroke="black" d="M267.459,-257.009C241.842,-233.776 206.546,-201.764 182.369,-179.837"/>
<polygon fill="black" stroke="black" points="184.694,-177.221 174.936,-173.095 179.992,-182.406 184.694,-177.221"/>
<text text-anchor="middle" x="273.604" y="-213.815" font-family="Times,serif" font-size="14.00">StreamsDatum</text>
</g>
<!-- processors_jackson_TypeConverterProcessor -->
<g id="node5" class="node">
<title>processors_jackson_TypeConverterProcessor</title>
<ellipse fill="none" stroke="black" cx="409" cy="-155.015" rx="97.3117" ry="18"/>
<text text-anchor="middle" x="409" y="-150.815" font-family="Times,serif" font-size="14.00">TypeConverterProcessor</text>
</g>
<!-- providers&#45;&gt;processors_jackson_TypeConverterProcessor -->
<g id="edge4" class="edge">
<title>providers&#45;&gt;processors_jackson_TypeConverterProcessor</title>
<path fill="none" stroke="black" d="M327.787,-252.997C346.385,-230.559 370.497,-201.468 387.604,-180.829"/>
<polygon fill="black" stroke="black" points="390.33,-183.025 394.016,-173.092 384.94,-178.558 390.33,-183.025"/>
<text text-anchor="middle" x="402.604" y="-213.815" font-family="Times,serif" font-size="14.00">StreamsDatum</text>
</g>
<!-- persisters -->
<g id="node3" class="node">
<title>persisters</title>
<ellipse fill="none" stroke="black" cx="300" cy="-43.5073" rx="43.5146" ry="43.5146"/>
<text text-anchor="middle" x="300" y="-39.3073" font-family="Times,serif" font-size="14.00">persisters</text>
</g>
<!-- processors_jackson_CleanAdditionalPropertiesProcessor&#45;&gt;persisters -->
<g id="edge3" class="edge">
<title>processors_jackson_CleanAdditionalPropertiesProcessor&#45;&gt;persisters</title>
<path fill="none" stroke="black" d="M178.297,-137.099C199.534,-120.767 231.438,-96.2328 257.252,-76.381"/>
<polygon fill="black" stroke="black" points="259.605,-78.987 265.398,-70.1165 255.338,-73.4381 259.605,-78.987"/>
<text text-anchor="middle" x="260.604" y="-107.815" font-family="Times,serif" font-size="14.00">StreamsDatum</text>
</g>
<!-- processors_jackson_TypeConverterProcessor&#45;&gt;persisters -->
<g id="edge5" class="edge">
<title>processors_jackson_TypeConverterProcessor&#45;&gt;persisters</title>
<path fill="none" stroke="black" d="M391.487,-137.099C377.037,-122.316 356.017,-100.813 337.769,-82.1455"/>
<polygon fill="black" stroke="black" points="340.164,-79.5881 330.671,-74.8836 335.158,-84.4813 340.164,-79.5881"/>
<text text-anchor="middle" x="414.604" y="-107.815" font-family="Times,serif" font-size="14.00">StreamsDatum</text>
</g>
</g>
</svg>
