<?xml version="1.0" encoding="UTF-8" standalone="no"?>
<!DOCTYPE svg PUBLIC "-//W3C//DTD SVG 1.1//EN"
 "http://www.w3.org/Graphics/SVG/1.1/DTD/svg11.dtd">
<!-- Generated by graphviz version 2.39.20160214.2135 (20160214.2135)
 -->
<!-- Title: g Pages: 1 -->
<svg width="263pt" height="587pt"
 viewBox="0.00 0.00 263.17 586.76" xmlns="http://www.w3.org/2000/svg" xmlns:xlink="http://www.w3.org/1999/xlink">
<g id="graph0" class="graph" transform="scale(1 1) rotate(0) translate(4 582.76)">
<title>g</title>
<polygon fill="white" stroke="transparent" points="-4,4 -4,-582.76 259.173,-582.76 259.173,4 -4,4"/>
<g id="clust1" class="cluster">
<title>cluster_persisters</title>
<polygon fill="none" stroke="black" points="8,-101 8,-175 182,-175 182,-101 8,-101"/>
<text text-anchor="middle" x="95" y="-159.8" font-family="Times,serif" font-size="14.00">persisters</text>
</g>
<g id="clust2" class="cluster">
<title>cluster_dbs</title>
<polygon fill="none" stroke="black" points="60,-8 60,-82 130,-82 130,-8 60,-8"/>
<text text-anchor="middle" x="95" y="-66.8" font-family="Times,serif" font-size="14.00">dbs</text>
</g>
<!-- generators -->
<g id="node1" class="node">
<title>generators</title>
<ellipse fill="none" stroke="black" cx="95" cy="-531.824" rx="46.8719" ry="46.8719"/>
<text text-anchor="middle" x="95" y="-527.624" font-family="Times,serif" font-size="14.00">generators</text>
</g>
<!-- providers -->
<g id="node2" class="node">
<title>providers</title>
<ellipse fill="none" stroke="black" cx="95" cy="-404.381" rx="43.5146" ry="43.5146"/>
<text text-anchor="middle" x="95" y="-400.181" font-family="Times,serif" font-size="14.00">providers</text>
</g>
<!-- generators&#45;&gt;providers -->
<g id="edge1" class="edge">
<title>generators&#45;&gt;providers</title>
<path fill="none" stroke="black" d="M95,-484.731C95,-476.067 95,-466.962 95,-458.121"/>
<polygon fill="black" stroke="black" points="98.5001,-457.904 95,-447.904 91.5001,-457.904 98.5001,-457.904"/>
</g>
<!-- processors -->
<g id="node3" class="node">
<title>processors</title>
<ellipse fill="none" stroke="black" cx="95" cy="-276.437" rx="47.3736" ry="47.3736"/>
<text text-anchor="middle" x="95" y="-272.237" font-family="Times,serif" font-size="14.00">processors</text>
</g>
<!-- providers&#45;&gt;processors -->
<g id="edge2" class="edge">
<title>providers&#45;&gt;processors</title>
<path fill="none" stroke="black" d="M95,-360.708C95,-352.279 95,-343.325 95,-334.521"/>
<polygon fill="black" stroke="black" points="98.5001,-334.296 95,-324.296 91.5001,-334.296 98.5001,-334.296"/>
</g>
<!-- persisters_hbase_writer -->
<g id="node4" class="node">
<title>persisters_hbase_writer</title>
<ellipse fill="none" stroke="black" cx="95" cy="-127" rx="78.5369" ry="18"/>
<text text-anchor="middle" x="95" y="-122.8" font-family="Times,serif" font-size="14.00">HbasePersistWriter</text>
</g>
<!-- processors&#45;&gt;persisters_hbase_writer -->
<g id="edge3" class="edge">
<title>processors&#45;&gt;persisters_hbase_writer</title>
<path fill="none" stroke="black" d="M95,-228.743C95,-204.594 95,-176.092 95,-155.408"/>
<polygon fill="black" stroke="black" points="98.5001,-155.368 95,-145.368 91.5001,-155.368 98.5001,-155.368"/>
<text text-anchor="middle" x="175.086" y="-199.8" font-family="Times,serif" font-size="14.00">StreamsDatum[String]</text>
<text text-anchor="middle" x="175.086" y="-185.8" font-family="Times,serif" font-size="14.00">StreamsDatum[ObjectNode]</text>
</g>
<!-- hbase -->
<g id="node5" class="node">
<title>hbase</title>
<path fill="none" stroke="black" d="M122,-48.7273C122,-50.5331 109.898,-52 95,-52 80.1018,-52 68,-50.5331 68,-48.7273 68,-48.7273 68,-19.2727 68,-19.2727 68,-17.4669 80.1018,-16 95,-16 109.898,-16 122,-17.4669 122,-19.2727 122,-19.2727 122,-48.7273 122,-48.7273"/>
<path fill="none" stroke="black" d="M122,-48.7273C122,-46.9214 109.898,-45.4545 95,-45.4545 80.1018,-45.4545 68,-46.9214 68,-48.7273"/>
<text text-anchor="middle" x="95" y="-29.8" font-family="Times,serif" font-size="14.00">hbase</text>
</g>
<!-- persisters_hbase_writer&#45;&gt;hbase -->
<g id="edge4" class="edge">
<title>persisters_hbase_writer&#45;&gt;hbase</title>
<path fill="none" stroke="black" d="M95,-108.626C95,-95.4212 95,-77.369 95,-62.3274"/>
<polygon fill="black" stroke="black" points="98.5001,-62.0192 95,-52.0192 91.5001,-62.0192 98.5001,-62.0192"/>
</g>
</g>
</svg>
