<?xml version="1.0" encoding="UTF-8" standalone="no"?>
<!DOCTYPE svg PUBLIC "-//W3C//DTD SVG 1.1//EN"
 "http://www.w3.org/Graphics/SVG/1.1/DTD/svg11.dtd">
<!-- Generated by graphviz version 2.39.20160214.2135 (20160214.2135)
 -->
<!-- Title: g Pages: 1 -->
<svg width="529pt" height="395pt"
 viewBox="0.00 0.00 529.00 395.00" xmlns="http://www.w3.org/2000/svg" xmlns:xlink="http://www.w3.org/1999/xlink">
<g id="graph0" class="graph" transform="scale(1 1) rotate(0) translate(4 391)">
<title>g</title>
<polygon fill="white" stroke="transparent" points="-4,4 -4,-391 525,-391 525,4 -4,4"/>
<g id="clust1" class="cluster">
<title>cluster_generators</title>
<polygon fill="none" stroke="black" stroke-dasharray="1,5" points="87,-305 87,-379 303,-379 303,-305 87,-305"/>
<text text-anchor="middle" x="195" y="-363.8" font-family="Times,serif" font-size="14.00">generators</text>
</g>
<g id="clust2" class="cluster">
<title>cluster_providers</title>
<polygon fill="none" stroke="black" points="8,-212 8,-286 513,-286 513,-212 8,-212"/>
<text text-anchor="middle" x="260.5" y="-270.8" font-family="Times,serif" font-size="14.00">providers</text>
</g>
<g id="clust3" class="cluster">
<title>cluster_processors</title>
<polygon fill="none" stroke="black" points="44,-106 44,-180 471,-180 471,-106 44,-106"/>
<text text-anchor="middle" x="257.5" y="-164.8" font-family="Times,serif" font-size="14.00">processors</text>
</g>
<!-- generators_instagram -->
<g id="node1" class="node">
<title>generators_instagram</title>
<ellipse fill="none" stroke="black" cx="195" cy="-331" rx="100.002" ry="18"/>
<text text-anchor="middle" x="195" y="-326.8" font-family="Times,serif" font-size="14.00">https://api.instagram.com</text>
</g>
<!-- providers_instagram_userinfo -->
<g id="node2" class="node">
<title>providers_instagram_userinfo</title>
<ellipse fill="none" stroke="black" cx="126" cy="-238" rx="109.615" ry="18"/>
<text text-anchor="middle" x="126" y="-233.8" font-family="Times,serif" font-size="14.00">InstagramUserInfoCollector</text>
</g>
<!-- generators_instagram&#45;&gt;providers_instagram_userinfo -->
<g id="edge1" class="edge">
<title>generators_instagram&#45;&gt;providers_instagram_userinfo</title>
<path fill="none" stroke="black" d="M181.696,-313.069C171.387,-299.174 156.955,-279.722 145.365,-264.101"/>
<polygon fill="black" stroke="black" points="148.032,-261.822 139.263,-255.876 142.411,-265.993 148.032,-261.822"/>
</g>
<!-- providers_instagram_media -->
<g id="node3" class="node">
<title>providers_instagram_media</title>
<ellipse fill="none" stroke="black" cx="379" cy="-238" rx="125.542" ry="18"/>
<text text-anchor="middle" x="379" y="-233.8" font-family="Times,serif" font-size="14.00">InstagramRecentMediaCollector</text>
</g>
<!-- generators_instagram&#45;&gt;providers_instagram_media -->
<g id="edge2" class="edge">
<title>generators_instagram&#45;&gt;providers_instagram_media</title>
<path fill="none" stroke="black" d="M228.748,-313.942C258.682,-298.813 302.592,-276.619 335.221,-260.128"/>
<polygon fill="black" stroke="black" points="337.183,-263.057 344.529,-255.423 334.026,-256.81 337.183,-263.057"/>
</g>
<!-- processors_instagram_activityobject -->
<g id="node5" class="node">
<title>processors_instagram_activityobject</title>
<ellipse fill="none" stroke="black" cx="150" cy="-132" rx="98.2636" ry="18"/>
<text text-anchor="middle" x="150" y="-127.8" font-family="Times,serif" font-size="14.00">InstagramTypeConverter</text>
</g>
<!-- providers_instagram_userinfo&#45;&gt;processors_instagram_activityobject -->
<g id="edge3" class="edge">
<title>providers_instagram_userinfo&#45;&gt;processors_instagram_activityobject</title>
<path fill="none" stroke="black" d="M130.18,-219.536C133.897,-203.121 139.387,-178.876 143.646,-160.062"/>
<polygon fill="black" stroke="black" points="147.073,-160.778 145.867,-150.252 140.245,-159.232 147.073,-160.778"/>
<text text-anchor="middle" x="194.369" y="-190.8" font-family="Times,serif" font-size="14.00">o.a.s.i.UserInfoData</text>
</g>
<!-- processors_instagram_activity -->
<g id="node4" class="node">
<title>processors_instagram_activity</title>
<ellipse fill="none" stroke="black" cx="365" cy="-132" rx="98.2636" ry="18"/>
<text text-anchor="middle" x="365" y="-127.8" font-family="Times,serif" font-size="14.00">InstagramTypeConverter</text>
</g>
<!-- providers_instagram_media&#45;&gt;processors_instagram_activity -->
<g id="edge4" class="edge">
<title>providers_instagram_media&#45;&gt;processors_instagram_activity</title>
<path fill="none" stroke="black" d="M376.561,-219.536C374.403,-203.197 371.221,-179.1 368.741,-160.323"/>
<polygon fill="black" stroke="black" points="372.19,-159.708 367.411,-150.252 365.25,-160.624 372.19,-159.708"/>
<text text-anchor="middle" x="436.979" y="-190.8" font-family="Times,serif" font-size="14.00">o.a.s.i.MediaFeedData</text>
</g>
<!-- persisters -->
<g id="node6" class="node">
<title>persisters</title>
<path fill="none" stroke="black" d="M306.376,-32.7273C306.376,-34.5331 290.968,-36 272,-36 253.032,-36 237.624,-34.5331 237.624,-32.7273 237.624,-32.7273 237.624,-3.27273 237.624,-3.27273 237.624,-1.46689 253.032,-0 272,-0 290.968,-0 306.376,-1.46689 306.376,-3.27273 306.376,-3.27273 306.376,-32.7273 306.376,-32.7273"/>
<path fill="none" stroke="black" d="M306.376,-32.7273C306.376,-30.9214 290.968,-29.4545 272,-29.4545 253.032,-29.4545 237.624,-30.9214 237.624,-32.7273"/>
<text text-anchor="middle" x="272" y="-13.8" font-family="Times,serif" font-size="14.00">persisters</text>
</g>
<!-- processors_instagram_activity&#45;&gt;persisters -->
<g id="edge6" class="edge">
<title>processors_instagram_activity&#45;&gt;persisters</title>
<path fill="none" stroke="black" d="M350.469,-114.188C335.067,-95.3079 310.596,-65.3114 293.077,-43.8361"/>
<polygon fill="black" stroke="black" points="295.769,-41.5999 286.736,-36.0636 290.345,-46.0248 295.769,-41.5999"/>
<text text-anchor="middle" x="385.136" y="-84.8" font-family="Times,serif" font-size="14.00">o.a.s.p.j.Photo</text>
<text text-anchor="middle" x="385.136" y="-70.8" font-family="Times,serif" font-size="14.00">o.a.s.p.j.Video</text>
<text text-anchor="middle" x="385.136" y="-56.8" font-family="Times,serif" font-size="14.00">o.a.s.p.j.Comment</text>
</g>
<!-- processors_instagram_activityobject&#45;&gt;persisters -->
<g id="edge5" class="edge">
<title>processors_instagram_activityobject&#45;&gt;persisters</title>
<path fill="none" stroke="black" d="M165.299,-114.123C179.678,-97.7448 202.157,-73.2007 223.734,-54 228.449,-49.8044 233.625,-45.5855 238.781,-41.5876"/>
<polygon fill="black" stroke="black" points="240.936,-44.3462 246.8,-35.5222 236.713,-38.7634 240.936,-44.3462"/>
<text text-anchor="middle" x="261.133" y="-70.8" font-family="Times,serif" font-size="14.00">o.a.s.p.j.Page</text>
</g>
</g>
</svg>
