<?xml version="1.0" encoding="UTF-8" standalone="no"?>
<!DOCTYPE svg PUBLIC "-//W3C//DTD SVG 1.1//EN"
 "http://www.w3.org/Graphics/SVG/1.1/DTD/svg11.dtd">
<!-- Generated by graphviz version 2.39.20160214.2135 (20160214.2135)
 -->
<!-- Title: g Pages: 1 -->
<svg width="330pt" height="236pt"
 viewBox="0.00 0.00 330.00 236.00" xmlns="http://www.w3.org/2000/svg" xmlns:xlink="http://www.w3.org/1999/xlink">
<g id="graph0" class="graph" transform="scale(1 1) rotate(0) translate(4 232)">
<title>g</title>
<polygon fill="white" stroke="transparent" points="-4,4 -4,-232 326,-232 326,4 -4,4"/>
<g id="clust1" class="cluster">
<title>cluster_generators</title>
<polygon fill="none" stroke="black" stroke-dasharray="1,5" points="8,-146 8,-220 314,-220 314,-146 8,-146"/>
<text text-anchor="middle" x="161" y="-204.8" font-family="Times,serif" font-size="14.00">generators</text>
</g>
<g id="clust2" class="cluster">
<title>cluster_providers</title>
<polygon fill="none" stroke="black" points="90,-64 90,-138 232,-138 232,-64 90,-64"/>
<text text-anchor="middle" x="161" y="-122.8" font-family="Times,serif" font-size="14.00">providers</text>
</g>
<!-- generators_gmail -->
<g id="node1" class="node">
<title>generators_gmail</title>
<ellipse fill="none" stroke="black" cx="161" cy="-172" rx="145.242" ry="18"/>
<text text-anchor="middle" x="161" y="-167.8" font-family="Times,serif" font-size="14.00">https://www.googleapis.com/gmail/v1</text>
</g>
<!-- providers_gmail -->
<g id="node2" class="node">
<title>providers_gmail</title>
<ellipse fill="none" stroke="black" cx="161" cy="-90" rx="62.8339" ry="18"/>
<text text-anchor="middle" x="161" y="-85.8" font-family="Times,serif" font-size="14.00">GmailProvider</text>
</g>
<!-- generators_gmail&#45;&gt;providers_gmail -->
<g id="edge1" class="edge">
<title>generators_gmail&#45;&gt;providers_gmail</title>
<path fill="none" stroke="black" d="M161,-153.802C161,-143.398 161,-130.122 161,-118.377"/>
<polygon fill="black" stroke="black" points="164.5,-118.148 161,-108.148 157.5,-118.148 164.5,-118.148"/>
</g>
<!-- persisters -->
<g id="node3" class="node">
<title>persisters</title>
<path fill="none" stroke="black" d="M195.376,-32.7273C195.376,-34.5331 179.968,-36 161,-36 142.032,-36 126.624,-34.5331 126.624,-32.7273 126.624,-32.7273 126.624,-3.27273 126.624,-3.27273 126.624,-1.46689 142.032,-0 161,-0 179.968,-0 195.376,-1.46689 195.376,-3.27273 195.376,-3.27273 195.376,-32.7273 195.376,-32.7273"/>
<path fill="none" stroke="black" d="M195.376,-32.7273C195.376,-30.9214 179.968,-29.4545 161,-29.4545 142.032,-29.4545 126.624,-30.9214 126.624,-32.7273"/>
<text text-anchor="middle" x="161" y="-13.8" font-family="Times,serif" font-size="14.00">persisters</text>
</g>
<!-- providers_gmail&#45;&gt;persisters -->
<g id="edge2" class="edge">
<title>providers_gmail&#45;&gt;persisters</title>
<path fill="none" stroke="black" d="M161,-71.8314C161,-64.131 161,-54.9743 161,-46.4166"/>
<polygon fill="black" stroke="black" points="164.5,-46.4132 161,-36.4133 157.5,-46.4133 164.5,-46.4132"/>
</g>
</g>
</svg>
