<?xml version="1.0" encoding="UTF-8" standalone="no"?>
<!DOCTYPE svg PUBLIC "-//W3C//DTD SVG 1.1//EN"
 "http://www.w3.org/Graphics/SVG/1.1/DTD/svg11.dtd">
<!-- Generated by graphviz version 2.39.20160214.2135 (20160214.2135)
 -->
<!-- Title: g Pages: 1 -->
<svg width="277pt" height="497pt"
 viewBox="0.00 0.00 277.17 496.90" xmlns="http://www.w3.org/2000/svg" xmlns:xlink="http://www.w3.org/1999/xlink">
<g id="graph0" class="graph" transform="scale(1 1) rotate(0) translate(4 492.901)">
<title>g</title>
<polygon fill="white" stroke="transparent" points="-4,4 -4,-492.901 273.173,-492.901 273.173,4 -4,4"/>
<g id="clust1" class="cluster">
<title>cluster_processors</title>
<polygon fill="none" stroke="black" points="8,-143.015 8,-217.015 210,-217.015 210,-143.015 8,-143.015"/>
<text text-anchor="middle" x="109" y="-201.815" font-family="Times,serif" font-size="14.00">processors</text>
</g>
<!-- generators -->
<g id="node1" class="node">
<title>generators</title>
<ellipse fill="none" stroke="black" cx="109" cy="-441.965" rx="46.8719" ry="46.8719"/>
<text text-anchor="middle" x="109" y="-437.765" font-family="Times,serif" font-size="14.00">generators</text>
</g>
<!-- providers -->
<g id="node2" class="node">
<title>providers</title>
<ellipse fill="none" stroke="black" cx="109" cy="-314.522" rx="43.5146" ry="43.5146"/>
<text text-anchor="middle" x="109" y="-310.322" font-family="Times,serif" font-size="14.00">providers</text>
</g>
<!-- generators&#45;&gt;providers -->
<g id="edge1" class="edge">
<title>generators&#45;&gt;providers</title>
<path fill="none" stroke="black" d="M109,-394.872C109,-386.208 109,-377.103 109,-368.262"/>
<polygon fill="black" stroke="black" points="112.5,-368.045 109,-358.045 105.5,-368.045 112.5,-368.045"/>
</g>
<!-- processors_urls_LinkResolverProcessor -->
<g id="node4" class="node">
<title>processors_urls_LinkResolverProcessor</title>
<ellipse fill="none" stroke="black" cx="109" cy="-169.015" rx="92.7602" ry="18"/>
<text text-anchor="middle" x="109" y="-164.815" font-family="Times,serif" font-size="14.00">LinkResolverProcessor</text>
</g>
<!-- providers&#45;&gt;processors_urls_LinkResolverProcessor -->
<g id="edge2" class="edge">
<title>providers&#45;&gt;processors_urls_LinkResolverProcessor</title>
<path fill="none" stroke="black" d="M109,-270.865C109,-247.056 109,-218.269 109,-197.382"/>
<polygon fill="black" stroke="black" points="112.5,-197.248 109,-187.248 105.5,-197.248 112.5,-197.248"/>
<text text-anchor="middle" x="178.207" y="-241.815" font-family="Times,serif" font-size="14.00">StreamsDatum[Activity]</text>
<text text-anchor="middle" x="178.207" y="-227.815" font-family="Times,serif" font-size="14.00">StreamsDatum[String]</text>
</g>
<!-- persisters -->
<g id="node3" class="node">
<title>persisters</title>
<ellipse fill="none" stroke="black" cx="109" cy="-43.5073" rx="43.5146" ry="43.5146"/>
<text text-anchor="middle" x="109" y="-39.3073" font-family="Times,serif" font-size="14.00">persisters</text>
</g>
<!-- processors_urls_LinkResolverProcessor&#45;&gt;persisters -->
<g id="edge3" class="edge">
<title>processors_urls_LinkResolverProcessor&#45;&gt;persisters</title>
<path fill="none" stroke="black" d="M109,-150.765C109,-136.703 109,-116.5 109,-97.4107"/>
<polygon fill="black" stroke="black" points="112.5,-97.2687 109,-87.2688 105.5,-97.2688 112.5,-97.2687"/>
<text text-anchor="middle" x="189.086" y="-121.815" font-family="Times,serif" font-size="14.00">StreamsDatum[Activity]</text>
<text text-anchor="middle" x="189.086" y="-107.815" font-family="Times,serif" font-size="14.00">StreamsDatum[ObjectNode]</text>
</g>
</g>
</svg>
