<?xml version="1.0" encoding="UTF-8" standalone="no"?>
<!DOCTYPE svg PUBLIC "-//W3C//DTD SVG 1.1//EN"
 "http://www.w3.org/Graphics/SVG/1.1/DTD/svg11.dtd">
<!-- Generated by graphviz version 2.39.20160214.2135 (20160214.2135)
 -->
<!-- Title: g Pages: 1 -->
<svg width="337pt" height="573pt"
 viewBox="0.00 0.00 336.76 572.76" xmlns="http://www.w3.org/2000/svg" xmlns:xlink="http://www.w3.org/1999/xlink">
<g id="graph0" class="graph" transform="scale(1 1) rotate(0) translate(4 568.76)">
<title>g</title>
<polygon fill="white" stroke="transparent" points="-4,4 -4,-568.76 332.759,-568.76 332.759,4 -4,4"/>
<g id="clust1" class="cluster">
<title>cluster_persisters</title>
<polygon fill="none" stroke="black" points="8,-101 8,-175 310,-175 310,-101 8,-101"/>
<text text-anchor="middle" x="159" y="-159.8" font-family="Times,serif" font-size="14.00">persisters</text>
</g>
<g id="clust2" class="cluster">
<title>cluster_dbs</title>
<polygon fill="none" stroke="black" points="91,-8 91,-82 161,-82 161,-8 91,-8"/>
<text text-anchor="middle" x="126" y="-66.8" font-family="Times,serif" font-size="14.00">dbs</text>
</g>
<!-- generators -->
<g id="node1" class="node">
<title>generators</title>
<ellipse fill="none" stroke="black" cx="163" cy="-517.824" rx="46.8719" ry="46.8719"/>
<text text-anchor="middle" x="163" y="-513.624" font-family="Times,serif" font-size="14.00">generators</text>
</g>
<!-- providers -->
<g id="node2" class="node">
<title>providers</title>
<ellipse fill="none" stroke="black" cx="163" cy="-390.381" rx="43.5146" ry="43.5146"/>
<text text-anchor="middle" x="163" y="-386.181" font-family="Times,serif" font-size="14.00">providers</text>
</g>
<!-- generators&#45;&gt;providers -->
<g id="edge1" class="edge">
<title>generators&#45;&gt;providers</title>
<path fill="none" stroke="black" d="M163,-470.731C163,-462.067 163,-452.962 163,-444.121"/>
<polygon fill="black" stroke="black" points="166.5,-443.904 163,-433.904 159.5,-443.904 166.5,-443.904"/>
</g>
<!-- processors -->
<g id="node3" class="node">
<title>processors</title>
<ellipse fill="none" stroke="black" cx="163" cy="-262.437" rx="47.3736" ry="47.3736"/>
<text text-anchor="middle" x="163" y="-258.237" font-family="Times,serif" font-size="14.00">processors</text>
</g>
<!-- providers&#45;&gt;processors -->
<g id="edge2" class="edge">
<title>providers&#45;&gt;processors</title>
<path fill="none" stroke="black" d="M163,-346.708C163,-338.279 163,-329.325 163,-320.521"/>
<polygon fill="black" stroke="black" points="166.5,-320.296 163,-310.296 159.5,-320.296 166.5,-320.296"/>
</g>
<!-- persisters_s3_writer -->
<g id="node5" class="node">
<title>persisters_s3_writer</title>
<ellipse fill="none" stroke="black" cx="82" cy="-127" rx="65.5178" ry="18"/>
<text text-anchor="middle" x="82" y="-122.8" font-family="Times,serif" font-size="14.00">S3PersistWriter</text>
</g>
<!-- processors&#45;&gt;persisters_s3_writer -->
<g id="edge3" class="edge">
<title>processors&#45;&gt;persisters_s3_writer</title>
<path fill="none" stroke="black" d="M131.534,-226.731C124.181,-217.423 116.763,-207.146 110.793,-197 102.987,-183.733 96.2961,-167.951 91.3342,-154.733"/>
<polygon fill="black" stroke="black" points="94.5816,-153.421 87.887,-145.209 87.9996,-155.804 94.5816,-153.421"/>
<text text-anchor="middle" x="152.604" y="-185.8" font-family="Times,serif" font-size="14.00">StreamsDatum</text>
</g>
<!-- persisters_s3_reader -->
<g id="node4" class="node">
<title>persisters_s3_reader</title>
<ellipse fill="none" stroke="black" cx="234" cy="-127" rx="68.146" ry="18"/>
<text text-anchor="middle" x="234" y="-122.8" font-family="Times,serif" font-size="14.00">S3PersistReader</text>
</g>
<!-- persisters_s3_reader&#45;&gt;processors -->
<g id="edge4" class="edge">
<title>persisters_s3_reader&#45;&gt;processors</title>
<path fill="none" stroke="black" d="M224.575,-144.978C215.727,-161.858 202.06,-187.928 189.847,-211.224"/>
<polygon fill="black" stroke="black" points="186.619,-209.844 185.076,-220.326 192.819,-213.094 186.619,-209.844"/>
<text text-anchor="middle" x="265.379" y="-185.8" font-family="Times,serif" font-size="14.00">StreamsDatum[String]</text>
</g>
<!-- s3 -->
<g id="node6" class="node">
<title>s3</title>
<ellipse fill="none" stroke="black" cx="126" cy="-34" rx="27" ry="18"/>
<text text-anchor="middle" x="126" y="-29.8" font-family="Times,serif" font-size="14.00">s3</text>
</g>
<!-- persisters_s3_writer&#45;&gt;s3 -->
<g id="edge6" class="edge">
<title>persisters_s3_writer&#45;&gt;s3</title>
<path fill="none" stroke="black" d="M90.4836,-109.069C97.0186,-95.2561 106.151,-75.9527 113.519,-60.3795"/>
<polygon fill="black" stroke="black" points="116.727,-61.7837 117.84,-51.2475 110.399,-58.79 116.727,-61.7837"/>
</g>
<!-- s3&#45;&gt;persisters_s3_reader -->
<g id="edge5" class="edge">
<title>s3&#45;&gt;persisters_s3_reader</title>
<path fill="none" stroke="black" d="M142.764,-48.4356C159.724,-63.0403 186.236,-85.8697 206.319,-103.163"/>
<polygon fill="black" stroke="black" points="204.078,-105.852 213.939,-109.725 208.645,-100.548 204.078,-105.852"/>
</g>
</g>
</svg>
