<?xml version="1.0" encoding="UTF-8" standalone="no"?>
<!DOCTYPE svg PUBLIC "-//W3C//DTD SVG 1.1//EN"
 "http://www.w3.org/Graphics/SVG/1.1/DTD/svg11.dtd">
<!-- Generated by graphviz version 2.39.20160214.2135 (20160214.2135)
 -->
<!-- Title: g Pages: 1 -->
<svg width="412pt" height="497pt"
 viewBox="0.00 0.00 412.17 496.90" xmlns="http://www.w3.org/2000/svg" xmlns:xlink="http://www.w3.org/1999/xlink">
<g id="graph0" class="graph" transform="scale(1 1) rotate(0) translate(4 492.901)">
<title>g</title>
<polygon fill="white" stroke="transparent" points="-4,4 -4,-492.901 408.173,-492.901 408.173,4 -4,4"/>
<g id="clust1" class="cluster">
<title>cluster_processors</title>
<polygon fill="none" stroke="black" points="8,-143.015 8,-217.015 312,-217.015 312,-143.015 8,-143.015"/>
<text text-anchor="middle" x="160" y="-201.815" font-family="Times,serif" font-size="14.00">processors</text>
</g>
<!-- generators -->
<g id="node1" class="node">
<title>generators</title>
<ellipse fill="none" stroke="black" cx="166" cy="-441.965" rx="46.8719" ry="46.8719"/>
<text text-anchor="middle" x="166" y="-437.765" font-family="Times,serif" font-size="14.00">generators</text>
</g>
<!-- providers -->
<g id="node2" class="node">
<title>providers</title>
<ellipse fill="none" stroke="black" cx="166" cy="-314.522" rx="43.5146" ry="43.5146"/>
<text text-anchor="middle" x="166" y="-310.322" font-family="Times,serif" font-size="14.00">providers</text>
</g>
<!-- generators&#45;&gt;providers -->
<g id="edge1" class="edge">
<title>generators&#45;&gt;providers</title>
<path fill="none" stroke="black" d="M166,-394.872C166,-386.208 166,-377.103 166,-368.262"/>
<polygon fill="black" stroke="black" points="169.5,-368.045 166,-358.045 162.5,-368.045 169.5,-368.045"/>
</g>
<!-- processors_json_JsonPathExtractor -->
<g id="node4" class="node">
<title>processors_json_JsonPathExtractor</title>
<ellipse fill="none" stroke="black" cx="90" cy="-169.015" rx="74.4103" ry="18"/>
<text text-anchor="middle" x="90" y="-164.815" font-family="Times,serif" font-size="14.00">JsonPathExtractor</text>
</g>
<!-- providers&#45;&gt;processors_json_JsonPathExtractor -->
<g id="edge2" class="edge">
<title>providers&#45;&gt;processors_json_JsonPathExtractor</title>
<path fill="none" stroke="black" d="M125.687,-297.912C106.928,-287.892 86.4507,-273.121 75.8271,-253.015 66.6438,-235.634 70.8168,-213.658 76.9526,-196.544"/>
<polygon fill="black" stroke="black" points="80.265,-197.686 80.706,-187.1 73.7599,-195.1 80.265,-197.686"/>
<text text-anchor="middle" x="156.086" y="-241.815" font-family="Times,serif" font-size="14.00">StreamsDatum[String]</text>
<text text-anchor="middle" x="156.086" y="-227.815" font-family="Times,serif" font-size="14.00">StreamsDatum[ObjectNode]</text>
</g>
<!-- processors_json_JsonPathFilter -->
<g id="node5" class="node">
<title>processors_json_JsonPathFilter</title>
<ellipse fill="none" stroke="black" cx="243" cy="-169.015" rx="60.9306" ry="18"/>
<text text-anchor="middle" x="243" y="-164.815" font-family="Times,serif" font-size="14.00">JsonPathFilter</text>
</g>
<!-- providers&#45;&gt;processors_json_JsonPathFilter -->
<g id="edge4" class="edge">
<title>providers&#45;&gt;processors_json_JsonPathFilter</title>
<path fill="none" stroke="black" d="M202.725,-291.113C215.461,-281.01 228.433,-268.042 236,-253.015 244.585,-235.967 246.239,-214.486 245.796,-197.514"/>
<polygon fill="black" stroke="black" points="249.269,-196.909 245.254,-187.104 242.279,-197.273 249.269,-196.909"/>
<text text-anchor="middle" x="324.086" y="-234.815" font-family="Times,serif" font-size="14.00">StreamsDatum[ObjectNode]</text>
</g>
<!-- persisters -->
<g id="node3" class="node">
<title>persisters</title>
<ellipse fill="none" stroke="black" cx="166" cy="-43.5073" rx="43.5146" ry="43.5146"/>
<text text-anchor="middle" x="166" y="-39.3073" font-family="Times,serif" font-size="14.00">persisters</text>
</g>
<!-- processors_json_JsonPathExtractor&#45;&gt;persisters -->
<g id="edge3" class="edge">
<title>processors_json_JsonPathExtractor&#45;&gt;persisters</title>
<path fill="none" stroke="black" d="M79.7096,-151.024C73.5377,-137.687 68.2245,-119.403 75.8271,-105.015 84.7908,-88.0502 100.769,-74.8835 116.812,-65.1642"/>
<polygon fill="black" stroke="black" points="118.725,-68.103 125.687,-60.117 115.264,-62.0181 118.725,-68.103"/>
<text text-anchor="middle" x="156.086" y="-121.815" font-family="Times,serif" font-size="14.00">StreamsDatum[String]</text>
<text text-anchor="middle" x="156.086" y="-107.815" font-family="Times,serif" font-size="14.00">StreamsDatum[ObjectNode]</text>
</g>
<!-- processors_json_JsonPathFilter&#45;&gt;persisters -->
<g id="edge5" class="edge">
<title>processors_json_JsonPathFilter&#45;&gt;persisters</title>
<path fill="none" stroke="black" d="M244.422,-150.903C244.693,-137.504 243.373,-119.196 236,-105.015 229.875,-93.2332 220.482,-82.6838 210.546,-73.7874"/>
<polygon fill="black" stroke="black" points="212.784,-71.0961 202.887,-67.3135 208.265,-76.4421 212.784,-71.0961"/>
<text text-anchor="middle" x="323.086" y="-114.815" font-family="Times,serif" font-size="14.00">StreamsDatum[ObjectNode]</text>
</g>
</g>
</svg>
