<?xml version="1.0" encoding="UTF-8" standalone="no"?>
<!DOCTYPE svg PUBLIC "-//W3C//DTD SVG 1.1//EN"
 "http://www.w3.org/Graphics/SVG/1.1/DTD/svg11.dtd">
<!-- Generated by graphviz version 2.39.20160214.2135 (20160214.2135)
 -->
<!-- Title: g Pages: 1 -->
<svg width="308pt" height="367pt"
 viewBox="0.00 0.00 307.79 367.00" xmlns="http://www.w3.org/2000/svg" xmlns:xlink="http://www.w3.org/1999/xlink">
<g id="graph0" class="graph" transform="scale(1 1) rotate(0) translate(4 363)">
<title>g</title>
<polygon fill="white" stroke="transparent" points="-4,4 -4,-363 303.79,-363 303.79,4 -4,4"/>
<g id="clust1" class="cluster">
<title>cluster_generators</title>
<polygon fill="none" stroke="black" stroke-dasharray="1,5" points="8,-277 8,-351 216,-351 216,-277 8,-277"/>
<text text-anchor="middle" x="112" y="-335.8" font-family="Times,serif" font-size="14.00">generators</text>
</g>
<g id="clust2" class="cluster">
<title>cluster_providers</title>
<polygon fill="none" stroke="black" points="31,-184 31,-258 193,-258 193,-184 31,-184"/>
<text text-anchor="middle" x="112" y="-242.8" font-family="Times,serif" font-size="14.00">providers</text>
</g>
<g id="clust3" class="cluster">
<title>cluster_processors</title>
<polygon fill="none" stroke="black" points="9,-78 9,-152 215,-152 215,-78 9,-78"/>
<text text-anchor="middle" x="112" y="-136.8" font-family="Times,serif" font-size="14.00">processors</text>
</g>
<!-- generators_sysomos -->
<g id="node1" class="node">
<title>generators_sysomos</title>
<ellipse fill="none" stroke="black" cx="112" cy="-303" rx="95.6932" ry="18"/>
<text text-anchor="middle" x="112" y="-298.8" font-family="Times,serif" font-size="14.00">https://api.sysomos.com</text>
</g>
<!-- providers_sysomos -->
<g id="node2" class="node">
<title>providers_sysomos</title>
<ellipse fill="none" stroke="black" cx="112" cy="-210" rx="72.5153" ry="18"/>
<text text-anchor="middle" x="112" y="-205.8" font-family="Times,serif" font-size="14.00">SysomosProvider</text>
</g>
<!-- generators_sysomos&#45;&gt;providers_sysomos -->
<g id="edge1" class="edge">
<title>generators_sysomos&#45;&gt;providers_sysomos</title>
<path fill="none" stroke="black" d="M112,-284.626C112,-271.421 112,-253.369 112,-238.327"/>
<polygon fill="black" stroke="black" points="115.5,-238.019 112,-228.019 108.5,-238.019 115.5,-238.019"/>
</g>
<!-- processors_sysomos_typeconveter -->
<g id="node3" class="node">
<title>processors_sysomos_typeconveter</title>
<ellipse fill="none" stroke="black" cx="112" cy="-104" rx="94.9322" ry="18"/>
<text text-anchor="middle" x="112" y="-99.8" font-family="Times,serif" font-size="14.00">SysomosTypeConverter</text>
</g>
<!-- providers_sysomos&#45;&gt;processors_sysomos_typeconveter -->
<g id="edge2" class="edge">
<title>providers_sysomos&#45;&gt;processors_sysomos_typeconveter</title>
<path fill="none" stroke="black" d="M112,-191.536C112,-175.197 112,-151.1 112,-132.323"/>
<polygon fill="black" stroke="black" points="115.5,-132.252 112,-122.252 108.5,-132.252 115.5,-132.252"/>
<text text-anchor="middle" x="205.895" y="-162.8" font-family="Times,serif" font-size="14.00">c.s.x.BeatApi.BeatResponse.Beat</text>
</g>
<!-- persisters -->
<g id="node4" class="node">
<title>persisters</title>
<path fill="none" stroke="black" d="M146.376,-32.7273C146.376,-34.5331 130.968,-36 112,-36 93.0318,-36 77.6239,-34.5331 77.6239,-32.7273 77.6239,-32.7273 77.6239,-3.27273 77.6239,-3.27273 77.6239,-1.46689 93.0318,-0 112,-0 130.968,-0 146.376,-1.46689 146.376,-3.27273 146.376,-3.27273 146.376,-32.7273 146.376,-32.7273"/>
<path fill="none" stroke="black" d="M146.376,-32.7273C146.376,-30.9214 130.968,-29.4545 112,-29.4545 93.0318,-29.4545 77.6239,-30.9214 77.6239,-32.7273"/>
<text text-anchor="middle" x="112" y="-13.8" font-family="Times,serif" font-size="14.00">persisters</text>
</g>
<!-- processors_sysomos_typeconveter&#45;&gt;persisters -->
<g id="edge3" class="edge">
<title>processors_sysomos_typeconveter&#45;&gt;persisters</title>
<path fill="none" stroke="black" d="M112,-85.7616C112,-74.3597 112,-59.4342 112,-46.494"/>
<polygon fill="black" stroke="black" points="115.5,-46.2121 112,-36.2121 108.5,-46.2121 115.5,-46.2121"/>
<text text-anchor="middle" x="158.467" y="-56.8" font-family="Times,serif" font-size="14.00">o.a.s.p.j.Activity</text>
</g>
</g>
</svg>
