<?xml version="1.0" encoding="UTF-8" standalone="no"?>
<!DOCTYPE svg PUBLIC "-//W3C//DTD SVG 1.1//EN"
 "http://www.w3.org/Graphics/SVG/1.1/DTD/svg11.dtd">
<!-- Generated by graphviz version 2.39.20160214.2135 (20160214.2135)
 -->
<!-- Title: g Pages: 1 -->
<svg width="435pt" height="573pt"
 viewBox="0.00 0.00 435.00 572.76" xmlns="http://www.w3.org/2000/svg" xmlns:xlink="http://www.w3.org/1999/xlink">
<g id="graph0" class="graph" transform="scale(1 1) rotate(0) translate(4 568.76)">
<title>g</title>
<polygon fill="white" stroke="transparent" points="-4,4 -4,-568.76 431,-568.76 431,4 -4,4"/>
<g id="clust2" class="cluster">
<title>cluster_queues</title>
<polygon fill="none" stroke="black" points="115,-8 115,-82 217,-82 217,-8 115,-8"/>
<text text-anchor="middle" x="166" y="-66.8" font-family="Times,serif" font-size="14.00">queues</text>
</g>
<g id="clust1" class="cluster">
<title>cluster_persisters</title>
<polygon fill="none" stroke="black" points="8,-101 8,-175 419,-175 419,-101 8,-101"/>
<text text-anchor="middle" x="213.5" y="-159.8" font-family="Times,serif" font-size="14.00">persisters</text>
</g>
<!-- generators -->
<g id="node1" class="node">
<title>generators</title>
<ellipse fill="none" stroke="black" cx="224" cy="-517.824" rx="46.8719" ry="46.8719"/>
<text text-anchor="middle" x="224" y="-513.624" font-family="Times,serif" font-size="14.00">generators</text>
</g>
<!-- providers -->
<g id="node2" class="node">
<title>providers</title>
<ellipse fill="none" stroke="black" cx="224" cy="-390.381" rx="43.5146" ry="43.5146"/>
<text text-anchor="middle" x="224" y="-386.181" font-family="Times,serif" font-size="14.00">providers</text>
</g>
<!-- generators&#45;&gt;providers -->
<g id="edge1" class="edge">
<title>generators&#45;&gt;providers</title>
<path fill="none" stroke="black" d="M224,-470.731C224,-462.067 224,-452.962 224,-444.121"/>
<polygon fill="black" stroke="black" points="227.5,-443.904 224,-433.904 220.5,-443.904 227.5,-443.904"/>
</g>
<!-- processors -->
<g id="node3" class="node">
<title>processors</title>
<ellipse fill="none" stroke="black" cx="224" cy="-262.437" rx="47.3736" ry="47.3736"/>
<text text-anchor="middle" x="224" y="-258.237" font-family="Times,serif" font-size="14.00">processors</text>
</g>
<!-- providers&#45;&gt;processors -->
<g id="edge2" class="edge">
<title>providers&#45;&gt;processors</title>
<path fill="none" stroke="black" d="M224,-346.708C224,-338.279 224,-329.325 224,-320.521"/>
<polygon fill="black" stroke="black" points="227.5,-320.296 224,-310.296 220.5,-320.296 227.5,-320.296"/>
</g>
<!-- persisters_filebuffer_writer -->
<g id="node5" class="node">
<title>persisters_filebuffer_writer</title>
<ellipse fill="none" stroke="black" cx="109" cy="-127" rx="93.2015" ry="18"/>
<text text-anchor="middle" x="109" y="-122.8" font-family="Times,serif" font-size="14.00">FileBufferPersistWriter</text>
</g>
<!-- processors&#45;&gt;persisters_filebuffer_writer -->
<g id="edge3" class="edge">
<title>processors&#45;&gt;persisters_filebuffer_writer</title>
<path fill="none" stroke="black" d="M193.182,-226.142C173.565,-203.038 148.623,-173.664 130.995,-152.904"/>
<polygon fill="black" stroke="black" points="133.532,-150.485 124.392,-145.127 128.197,-155.015 133.532,-150.485"/>
<text text-anchor="middle" x="208.604" y="-185.8" font-family="Times,serif" font-size="14.00">StreamsDatum</text>
</g>
<!-- persisters_filebuffer_reader -->
<g id="node4" class="node">
<title>persisters_filebuffer_reader</title>
<ellipse fill="none" stroke="black" cx="316" cy="-127" rx="95.3304" ry="18"/>
<text text-anchor="middle" x="316" y="-122.8" font-family="Times,serif" font-size="14.00">FileBufferPersistReader</text>
</g>
<!-- persisters_filebuffer_reader&#45;&gt;processors -->
<g id="edge4" class="edge">
<title>persisters_filebuffer_reader&#45;&gt;processors</title>
<path fill="none" stroke="black" d="M303.793,-144.971C291.779,-162.657 272.906,-190.441 256.53,-214.548"/>
<polygon fill="black" stroke="black" points="253.581,-212.66 250.858,-222.899 259.372,-216.593 253.581,-212.66"/>
<text text-anchor="middle" x="338.379" y="-185.8" font-family="Times,serif" font-size="14.00">StreamsDatum[String]</text>
</g>
<!-- filebuffer -->
<g id="node6" class="node">
<title>filebuffer</title>
<ellipse fill="none" stroke="black" cx="166" cy="-34" rx="42.711" ry="18"/>
<text text-anchor="middle" x="166" y="-29.8" font-family="Times,serif" font-size="14.00">filebuffer</text>
</g>
<!-- persisters_filebuffer_writer&#45;&gt;filebuffer -->
<g id="edge5" class="edge">
<title>persisters_filebuffer_writer&#45;&gt;filebuffer</title>
<path fill="none" stroke="black" d="M119.99,-109.069C128.482,-95.214 140.359,-75.835 149.919,-60.2373"/>
<polygon fill="black" stroke="black" points="152.995,-61.9159 155.237,-51.5609 147.027,-58.2579 152.995,-61.9159"/>
</g>
<!-- filebuffer&#45;&gt;persisters_filebuffer_reader -->
<g id="edge6" class="edge">
<title>filebuffer&#45;&gt;persisters_filebuffer_reader</title>
<path fill="none" stroke="black" d="M190.243,-49.0309C214.391,-64.0025 251.765,-87.1741 279.5,-104.37"/>
<polygon fill="black" stroke="black" points="277.794,-107.431 288.138,-109.725 281.483,-101.481 277.794,-107.431"/>
</g>
</g>
</svg>
