<?xml version="1.0" encoding="UTF-8" standalone="no"?>
<!DOCTYPE svg PUBLIC "-//W3C//DTD SVG 1.1//EN"
 "http://www.w3.org/Graphics/SVG/1.1/DTD/svg11.dtd">
<!-- Generated by graphviz version 2.39.20160214.2135 (20160214.2135)
 -->
<!-- Title: g Pages: 1 -->
<svg width="207pt" height="367pt"
 viewBox="0.00 0.00 206.61 367.00" xmlns="http://www.w3.org/2000/svg" xmlns:xlink="http://www.w3.org/1999/xlink">
<g id="graph0" class="graph" transform="scale(1 1) rotate(0) translate(4 363)">
<title>g</title>
<polygon fill="white" stroke="transparent" points="-4,4 -4,-363 202.61,-363 202.61,4 -4,4"/>
<g id="clust1" class="cluster">
<title>cluster_generators</title>
<polygon fill="none" stroke="black" stroke-dasharray="1,5" points="37,-277 37,-351 151,-351 151,-277 37,-277"/>
<text text-anchor="middle" x="94" y="-335.8" font-family="Times,serif" font-size="14.00">generators</text>
</g>
<g id="clust2" class="cluster">
<title>cluster_providers</title>
<polygon fill="none" stroke="black" points="8,-184 8,-258 180,-258 180,-184 8,-184"/>
<text text-anchor="middle" x="94" y="-242.8" font-family="Times,serif" font-size="14.00">providers</text>
</g>
<g id="clust3" class="cluster">
<title>cluster_processors</title>
<polygon fill="none" stroke="black" points="10,-78 10,-152 178,-152 178,-78 10,-78"/>
<text text-anchor="middle" x="94" y="-136.8" font-family="Times,serif" font-size="14.00">processors</text>
</g>
<!-- generators_rss -->
<g id="node1" class="node">
<title>generators_rss</title>
<ellipse fill="none" stroke="black" cx="94" cy="-303" rx="48.8701" ry="18"/>
<text text-anchor="middle" x="94" y="-298.8" font-family="Times,serif" font-size="14.00">RSS Feeds</text>
</g>
<!-- providers_rss_streamprovider -->
<g id="node2" class="node">
<title>providers_rss_streamprovider</title>
<ellipse fill="none" stroke="black" cx="94" cy="-210" rx="78.2866" ry="18"/>
<text text-anchor="middle" x="94" y="-205.8" font-family="Times,serif" font-size="14.00">RssStreamProvider</text>
</g>
<!-- generators_rss&#45;&gt;providers_rss_streamprovider -->
<g id="edge1" class="edge">
<title>generators_rss&#45;&gt;providers_rss_streamprovider</title>
<path fill="none" stroke="black" d="M94,-284.626C94,-271.421 94,-253.369 94,-238.327"/>
<polygon fill="black" stroke="black" points="97.5001,-238.019 94,-228.019 90.5001,-238.019 97.5001,-238.019"/>
</g>
<!-- processors_rss_activity -->
<g id="node3" class="node">
<title>processors_rss_activity</title>
<ellipse fill="none" stroke="black" cx="94" cy="-104" rx="75.6053" ry="18"/>
<text text-anchor="middle" x="94" y="-99.8" font-family="Times,serif" font-size="14.00">RssTypeConverter</text>
</g>
<!-- providers_rss_streamprovider&#45;&gt;processors_rss_activity -->
<g id="edge2" class="edge">
<title>providers_rss_streamprovider&#45;&gt;processors_rss_activity</title>
<path fill="none" stroke="black" d="M94,-191.536C94,-175.197 94,-151.1 94,-132.323"/>
<polygon fill="black" stroke="black" points="97.5001,-132.252 94,-122.252 90.5001,-132.252 97.5001,-132.252"/>
<text text-anchor="middle" x="146.305" y="-162.8" font-family="Times,serif" font-size="14.00">c.s.s.f.s.SyndEntry</text>
</g>
<!-- persisters -->
<g id="node4" class="node">
<title>persisters</title>
<path fill="none" stroke="black" d="M128.376,-32.7273C128.376,-34.5331 112.968,-36 94,-36 75.0318,-36 59.6239,-34.5331 59.6239,-32.7273 59.6239,-32.7273 59.6239,-3.27273 59.6239,-3.27273 59.6239,-1.46689 75.0318,-0 94,-0 112.968,-0 128.376,-1.46689 128.376,-3.27273 128.376,-3.27273 128.376,-32.7273 128.376,-32.7273"/>
<path fill="none" stroke="black" d="M128.376,-32.7273C128.376,-30.9214 112.968,-29.4545 94,-29.4545 75.0318,-29.4545 59.6239,-30.9214 59.6239,-32.7273"/>
<text text-anchor="middle" x="94" y="-13.8" font-family="Times,serif" font-size="14.00">persisters</text>
</g>
<!-- processors_rss_activity&#45;&gt;persisters -->
<g id="edge3" class="edge">
<title>processors_rss_activity&#45;&gt;persisters</title>
<path fill="none" stroke="black" d="M94,-85.7616C94,-74.3597 94,-59.4342 94,-46.494"/>
<polygon fill="black" stroke="black" points="97.5001,-46.2121 94,-36.2121 90.5001,-46.2121 97.5001,-46.2121"/>
<text text-anchor="middle" x="140.467" y="-56.8" font-family="Times,serif" font-size="14.00">o.a.s.p.j.Activity</text>
</g>
</g>
</svg>
