<?xml version="1.0" encoding="UTF-8" standalone="no"?>
<!DOCTYPE svg PUBLIC "-//W3C//DTD SVG 1.1//EN"
 "http://www.w3.org/Graphics/SVG/1.1/DTD/svg11.dtd">
<!-- Generated by graphviz version 2.39.20160214.2135 (20160214.2135)
 -->
<!-- Title: g Pages: 1 -->
<svg width="489pt" height="381pt"
 viewBox="0.00 0.00 489.00 381.00" xmlns="http://www.w3.org/2000/svg" xmlns:xlink="http://www.w3.org/1999/xlink">
<g id="graph0" class="graph" transform="scale(1 1) rotate(0) translate(4 377)">
<title>g</title>
<polygon fill="white" stroke="transparent" points="-4,4 -4,-377 485,-377 485,4 -4,4"/>
<g id="clust1" class="cluster">
<title>cluster_generators</title>
<polygon fill="none" stroke="black" stroke-dasharray="1,5" points="78,-291 78,-365 282,-365 282,-291 78,-291"/>
<text text-anchor="middle" x="180" y="-349.8" font-family="Times,serif" font-size="14.00">generators</text>
</g>
<g id="clust2" class="cluster">
<title>cluster_providers</title>
<polygon fill="none" stroke="black" points="8,-198 8,-272 473,-272 473,-198 8,-198"/>
<text text-anchor="middle" x="240.5" y="-256.8" font-family="Times,serif" font-size="14.00">providers</text>
</g>
<g id="clust3" class="cluster">
<title>cluster_processors</title>
<polygon fill="none" stroke="black" points="34,-92 34,-166 439,-166 439,-92 34,-92"/>
<text text-anchor="middle" x="236.5" y="-150.8" font-family="Times,serif" font-size="14.00">processors</text>
</g>
<!-- generators_youtube -->
<g id="node1" class="node">
<title>generators_youtube</title>
<ellipse fill="none" stroke="black" cx="180" cy="-317" rx="93.7378" ry="18"/>
<text text-anchor="middle" x="180" y="-312.8" font-family="Times,serif" font-size="14.00">https://api.youtube.com</text>
</g>
<!-- providers_youtube_channel -->
<g id="node2" class="node">
<title>providers_youtube_channel</title>
<ellipse fill="none" stroke="black" cx="116" cy="-224" rx="99.7162" ry="18"/>
<text text-anchor="middle" x="116" y="-219.8" font-family="Times,serif" font-size="14.00">YoutubeChannelProvider</text>
</g>
<!-- generators_youtube&#45;&gt;providers_youtube_channel -->
<g id="edge1" class="edge">
<title>generators_youtube&#45;&gt;providers_youtube_channel</title>
<path fill="none" stroke="black" d="M167.66,-299.069C158.187,-285.302 144.959,-266.082 134.261,-250.536"/>
<polygon fill="black" stroke="black" points="136.854,-248.13 128.302,-241.876 131.088,-252.098 136.854,-248.13"/>
</g>
<!-- providers_youtube_video -->
<g id="node3" class="node">
<title>providers_youtube_video</title>
<ellipse fill="none" stroke="black" cx="349" cy="-224" rx="115.637" ry="18"/>
<text text-anchor="middle" x="349" y="-219.8" font-family="Times,serif" font-size="14.00">YoutubeUserActivityProvider</text>
</g>
<!-- generators_youtube&#45;&gt;providers_youtube_video -->
<g id="edge2" class="edge">
<title>generators_youtube&#45;&gt;providers_youtube_video</title>
<path fill="none" stroke="black" d="M210.997,-299.942C238.372,-284.878 278.475,-262.81 308.403,-246.34"/>
<polygon fill="black" stroke="black" points="310.266,-249.31 317.339,-241.423 306.891,-243.178 310.266,-249.31"/>
</g>
<!-- processors_youtube_activityobject -->
<g id="node5" class="node">
<title>processors_youtube_activityobject</title>
<ellipse fill="none" stroke="black" cx="135" cy="-118" rx="92.691" ry="18"/>
<text text-anchor="middle" x="135" y="-113.8" font-family="Times,serif" font-size="14.00">YoutubeTypeConverter</text>
</g>
<!-- providers_youtube_channel&#45;&gt;processors_youtube_activityobject -->
<g id="edge3" class="edge">
<title>providers_youtube_channel&#45;&gt;processors_youtube_activityobject</title>
<path fill="none" stroke="black" d="M119.31,-205.536C122.238,-189.197 126.558,-165.1 129.923,-146.323"/>
<polygon fill="black" stroke="black" points="133.409,-146.713 131.728,-136.252 126.519,-145.478 133.409,-146.713"/>
<text text-anchor="middle" x="167.704" y="-176.8" font-family="Times,serif" font-size="14.00">o.a.s.y.Channel</text>
</g>
<!-- processors_youtube_activity -->
<g id="node4" class="node">
<title>processors_youtube_activity</title>
<ellipse fill="none" stroke="black" cx="338" cy="-118" rx="92.691" ry="18"/>
<text text-anchor="middle" x="338" y="-113.8" font-family="Times,serif" font-size="14.00">YoutubeTypeConverter</text>
</g>
<!-- providers_youtube_video&#45;&gt;processors_youtube_activity -->
<g id="edge4" class="edge">
<title>providers_youtube_video&#45;&gt;processors_youtube_activity</title>
<path fill="none" stroke="black" d="M347.084,-205.536C345.388,-189.197 342.888,-165.1 340.939,-146.323"/>
<polygon fill="black" stroke="black" points="344.408,-145.837 339.894,-136.252 337.445,-146.56 344.408,-145.837"/>
<text text-anchor="middle" x="381.066" y="-176.8" font-family="Times,serif" font-size="14.00">o.a.s.y.Video</text>
</g>
<!-- persisters -->
<g id="node6" class="node">
<title>persisters</title>
<path fill="none" stroke="black" d="M283.376,-32.7273C283.376,-34.5331 267.968,-36 249,-36 230.032,-36 214.624,-34.5331 214.624,-32.7273 214.624,-32.7273 214.624,-3.27273 214.624,-3.27273 214.624,-1.46689 230.032,-0 249,-0 267.968,-0 283.376,-1.46689 283.376,-3.27273 283.376,-3.27273 283.376,-32.7273 283.376,-32.7273"/>
<path fill="none" stroke="black" d="M283.376,-32.7273C283.376,-30.9214 267.968,-29.4545 249,-29.4545 230.032,-29.4545 214.624,-30.9214 214.624,-32.7273"/>
<text text-anchor="middle" x="249" y="-13.8" font-family="Times,serif" font-size="14.00">persisters</text>
</g>
<!-- processors_youtube_activity&#45;&gt;persisters -->
<g id="edge6" class="edge">
<title>processors_youtube_activity&#45;&gt;persisters</title>
<path fill="none" stroke="black" d="M322.089,-100.122C308.127,-84.435 287.655,-61.4324 271.926,-43.7598"/>
<polygon fill="black" stroke="black" points="274.337,-41.2035 265.074,-36.0604 269.108,-45.8573 274.337,-41.2035"/>
<text text-anchor="middle" x="355.136" y="-70.8" font-family="Times,serif" font-size="14.00">o.a.s.p.j.Video</text>
<text text-anchor="middle" x="355.136" y="-56.8" font-family="Times,serif" font-size="14.00">o.a.s.p.j.Comment</text>
</g>
<!-- processors_youtube_activityobject&#45;&gt;persisters -->
<g id="edge5" class="edge">
<title>processors_youtube_activityobject&#45;&gt;persisters</title>
<path fill="none" stroke="black" d="M153.313,-100.216C166.959,-87.1454 186.188,-69.1062 203.734,-54 208.219,-50.1389 213.038,-46.1475 217.8,-42.2905"/>
<polygon fill="black" stroke="black" points="220.071,-44.9554 225.69,-35.973 215.696,-39.4911 220.071,-44.9554"/>
<text text-anchor="middle" x="241.133" y="-63.8" font-family="Times,serif" font-size="14.00">o.a.s.p.j.Page</text>
</g>
</g>
</svg>
