<?xml version="1.0" encoding="UTF-8" standalone="no"?>
<!DOCTYPE svg PUBLIC "-//W3C//DTD SVG 1.1//EN"
 "http://www.w3.org/Graphics/SVG/1.1/DTD/svg11.dtd">
<!-- Generated by graphviz version 2.39.20160214.2135 (20160214.2135)
 -->
<!-- Title: g Pages: 1 -->
<svg width="394pt" height="573pt"
 viewBox="0.00 0.00 394.00 572.76" xmlns="http://www.w3.org/2000/svg" xmlns:xlink="http://www.w3.org/1999/xlink">
<g id="graph0" class="graph" transform="scale(1 1) rotate(0) translate(4 568.76)">
<title>g</title>
<polygon fill="white" stroke="transparent" points="-4,4 -4,-568.76 390,-568.76 390,4 -4,4"/>
<g id="clust1" class="cluster">
<title>cluster_persisters</title>
<polygon fill="none" stroke="black" points="8,-101 8,-175 378,-175 378,-101 8,-101"/>
<text text-anchor="middle" x="193" y="-159.8" font-family="Times,serif" font-size="14.00">persisters</text>
</g>
<g id="clust2" class="cluster">
<title>cluster_queues</title>
<polygon fill="none" stroke="black" points="108,-8 108,-82 194,-82 194,-8 108,-8"/>
<text text-anchor="middle" x="151" y="-66.8" font-family="Times,serif" font-size="14.00">queues</text>
</g>
<!-- generators -->
<g id="node1" class="node">
<title>generators</title>
<ellipse fill="none" stroke="black" cx="202" cy="-517.824" rx="46.8719" ry="46.8719"/>
<text text-anchor="middle" x="202" y="-513.624" font-family="Times,serif" font-size="14.00">generators</text>
</g>
<!-- providers -->
<g id="node2" class="node">
<title>providers</title>
<ellipse fill="none" stroke="black" cx="202" cy="-390.381" rx="43.5146" ry="43.5146"/>
<text text-anchor="middle" x="202" y="-386.181" font-family="Times,serif" font-size="14.00">providers</text>
</g>
<!-- generators&#45;&gt;providers -->
<g id="edge1" class="edge">
<title>generators&#45;&gt;providers</title>
<path fill="none" stroke="black" d="M202,-470.731C202,-462.067 202,-452.962 202,-444.121"/>
<polygon fill="black" stroke="black" points="205.5,-443.904 202,-433.904 198.5,-443.904 205.5,-443.904"/>
</g>
<!-- processors -->
<g id="node3" class="node">
<title>processors</title>
<ellipse fill="none" stroke="black" cx="202" cy="-262.437" rx="47.3736" ry="47.3736"/>
<text text-anchor="middle" x="202" y="-258.237" font-family="Times,serif" font-size="14.00">processors</text>
</g>
<!-- providers&#45;&gt;processors -->
<g id="edge2" class="edge">
<title>providers&#45;&gt;processors</title>
<path fill="none" stroke="black" d="M202,-346.708C202,-338.279 202,-329.325 202,-320.521"/>
<polygon fill="black" stroke="black" points="205.5,-320.296 202,-310.296 198.5,-320.296 205.5,-320.296"/>
</g>
<!-- persisters_kinesis_writer -->
<g id="node5" class="node">
<title>persisters_kinesis_writer</title>
<ellipse fill="none" stroke="black" cx="99" cy="-127" rx="82.8977" ry="18"/>
<text text-anchor="middle" x="99" y="-122.8" font-family="Times,serif" font-size="14.00">KinesisPersistWriter</text>
</g>
<!-- processors&#45;&gt;persisters_kinesis_writer -->
<g id="edge3" class="edge">
<title>processors&#45;&gt;persisters_kinesis_writer</title>
<path fill="none" stroke="black" d="M173.035,-224.35C155.749,-201.621 134.245,-173.345 118.874,-153.133"/>
<polygon fill="black" stroke="black" points="121.532,-150.846 112.693,-145.005 115.96,-155.083 121.532,-150.846"/>
<text text-anchor="middle" x="192.604" y="-185.8" font-family="Times,serif" font-size="14.00">StreamsDatum</text>
</g>
<!-- persisters_kinesis_reader -->
<g id="node4" class="node">
<title>persisters_kinesis_reader</title>
<ellipse fill="none" stroke="black" cx="285" cy="-127" rx="85.0273" ry="18"/>
<text text-anchor="middle" x="285" y="-122.8" font-family="Times,serif" font-size="14.00">KinesisPersistReader</text>
</g>
<!-- persisters_kinesis_reader&#45;&gt;processors -->
<g id="edge4" class="edge">
<title>persisters_kinesis_reader&#45;&gt;processors</title>
<path fill="none" stroke="black" d="M273.951,-145.029C263.31,-162.393 246.727,-189.452 232.163,-213.218"/>
<polygon fill="black" stroke="black" points="229.144,-211.446 226.903,-221.801 235.112,-215.104 229.144,-211.446"/>
<text text-anchor="middle" x="311.379" y="-185.8" font-family="Times,serif" font-size="14.00">StreamsDatum[String]</text>
</g>
<!-- kinesis -->
<g id="node6" class="node">
<title>kinesis</title>
<ellipse fill="none" stroke="black" cx="151" cy="-34" rx="34.8458" ry="18"/>
<text text-anchor="middle" x="151" y="-29.8" font-family="Times,serif" font-size="14.00">kinesis</text>
</g>
<!-- persisters_kinesis_writer&#45;&gt;kinesis -->
<g id="edge5" class="edge">
<title>persisters_kinesis_writer&#45;&gt;kinesis</title>
<path fill="none" stroke="black" d="M109.026,-109.069C116.7,-95.3435 127.406,-76.1968 136.085,-60.6756"/>
<polygon fill="black" stroke="black" points="139.356,-61.9973 141.181,-51.5609 133.246,-58.581 139.356,-61.9973"/>
</g>
<!-- kinesis&#45;&gt;persisters_kinesis_reader -->
<g id="edge6" class="edge">
<title>kinesis&#45;&gt;persisters_kinesis_reader</title>
<path fill="none" stroke="black" d="M171.8,-48.4356C193.122,-63.2341 226.612,-86.4773 251.643,-103.849"/>
<polygon fill="black" stroke="black" points="249.899,-106.899 260.11,-109.725 253.89,-101.148 249.899,-106.899"/>
</g>
</g>
</svg>
