<?xml version="1.0" encoding="UTF-8" standalone="no"?>
<!DOCTYPE svg PUBLIC "-//W3C//DTD SVG 1.1//EN"
 "http://www.w3.org/Graphics/SVG/1.1/DTD/svg11.dtd">
<!-- Generated by graphviz version 2.39.20160214.2135 (20160214.2135)
 -->
<!-- Title: g Pages: 1 -->
<svg width="1383pt" height="534pt"
 viewBox="0.00 0.00 1383.00 533.89" xmlns="http://www.w3.org/2000/svg" xmlns:xlink="http://www.w3.org/1999/xlink">
<g id="graph0" class="graph" transform="scale(1 1) rotate(0) translate(4 529.886)">
<title>g</title>
<polygon fill="white" stroke="transparent" points="-4,4 -4,-529.886 1379,-529.886 1379,4 -4,4"/>
<g id="clust1" class="cluster">
<title>cluster_processors</title>
<polygon fill="none" stroke="black" points="8,-207 8,-281 1367,-281 1367,-207 8,-207"/>
<text text-anchor="middle" x="687.5" y="-265.8" font-family="Times,serif" font-size="14.00">processors</text>
</g>
<g id="clust2" class="cluster">
<title>cluster_persisters</title>
<polygon fill="none" stroke="black" points="283,-101 283,-175 969,-175 969,-101 283,-101"/>
<text text-anchor="middle" x="626" y="-159.8" font-family="Times,serif" font-size="14.00">persisters</text>
</g>
<g id="clust3" class="cluster">
<title>cluster_dbs</title>
<polygon fill="none" stroke="black" points="572,-8 572,-82 676,-82 676,-8 572,-8"/>
<text text-anchor="middle" x="624" y="-66.8" font-family="Times,serif" font-size="14.00">dbs</text>
</g>
<!-- generators -->
<g id="node1" class="node">
<title>generators</title>
<ellipse fill="none" stroke="black" cx="624" cy="-478.951" rx="46.8719" ry="46.8719"/>
<text text-anchor="middle" x="624" y="-474.751" font-family="Times,serif" font-size="14.00">generators</text>
</g>
<!-- providers -->
<g id="node2" class="node">
<title>providers</title>
<ellipse fill="none" stroke="black" cx="624" cy="-351.507" rx="43.5146" ry="43.5146"/>
<text text-anchor="middle" x="624" y="-347.307" font-family="Times,serif" font-size="14.00">providers</text>
</g>
<!-- generators&#45;&gt;providers -->
<g id="edge1" class="edge">
<title>generators&#45;&gt;providers</title>
<path fill="none" stroke="black" d="M624,-431.857C624,-423.194 624,-414.089 624,-405.247"/>
<polygon fill="black" stroke="black" points="627.5,-405.03 624,-395.03 620.5,-405.03 627.5,-405.03"/>
</g>
<!-- processors_elasticsearch_DocumentToMetadataProcessor -->
<g id="node5" class="node">
<title>processors_elasticsearch_DocumentToMetadataProcessor</title>
<ellipse fill="none" stroke="black" cx="624" cy="-233" rx="123.371" ry="18"/>
<text text-anchor="middle" x="624" y="-228.8" font-family="Times,serif" font-size="14.00">DocumentToMetadataProcessor</text>
</g>
<!-- providers&#45;&gt;processors_elasticsearch_DocumentToMetadataProcessor -->
<g id="edge2" class="edge">
<title>providers&#45;&gt;processors_elasticsearch_DocumentToMetadataProcessor</title>
<path fill="none" stroke="black" d="M624,-307.716C624,-302.277 624,-296.651 624,-291.039"/>
<polygon fill="black" stroke="black" points="627.5,-290.998 624,-280.998 620.5,-290.998 627.5,-290.998"/>
</g>
<!-- processors_elasticsearch_DatumFromMetadataAsDocumentProcessor -->
<g id="node3" class="node">
<title>processors_elasticsearch_DatumFromMetadataAsDocumentProcessor</title>
<ellipse fill="none" stroke="black" cx="1192" cy="-233" rx="167.08" ry="18"/>
<text text-anchor="middle" x="1192" y="-228.8" font-family="Times,serif" font-size="14.00">DatumFromMetadataAsDocumentProcessor</text>
</g>
<!-- processors_elasticsearch_DatumFromMetadataProcessor -->
<g id="node4" class="node">
<title>processors_elasticsearch_DatumFromMetadataProcessor</title>
<ellipse fill="none" stroke="black" cx="886" cy="-233" rx="120.749" ry="18"/>
<text text-anchor="middle" x="886" y="-228.8" font-family="Times,serif" font-size="14.00">DatumFromMetadataProcessor</text>
</g>
<!-- persisters_elasticsearch_writer -->
<g id="node9" class="node">
<title>persisters_elasticsearch_writer</title>
<ellipse fill="none" stroke="black" cx="394" cy="-127" rx="103.134" ry="18"/>
<text text-anchor="middle" x="394" y="-122.8" font-family="Times,serif" font-size="14.00">ElasticsearchPersistWriter</text>
</g>
<!-- processors_elasticsearch_DocumentToMetadataProcessor&#45;&gt;persisters_elasticsearch_writer -->
<g id="edge3" class="edge">
<title>processors_elasticsearch_DocumentToMetadataProcessor&#45;&gt;persisters_elasticsearch_writer</title>
<path fill="none" stroke="black" d="M567.595,-207.005C528.302,-188.896 476.557,-165.048 439.812,-148.113"/>
<polygon fill="black" stroke="black" points="441.235,-144.916 430.689,-143.909 438.306,-151.273 441.235,-144.916"/>
</g>
<!-- persisters_elasticsearch_updater -->
<g id="node10" class="node">
<title>persisters_elasticsearch_updater</title>
<ellipse fill="none" stroke="black" cx="624" cy="-127" rx="108.646" ry="18"/>
<text text-anchor="middle" x="624" y="-122.8" font-family="Times,serif" font-size="14.00">ElasticsearchPersistUpdater</text>
</g>
<!-- processors_elasticsearch_DocumentToMetadataProcessor&#45;&gt;persisters_elasticsearch_updater -->
<g id="edge4" class="edge">
<title>processors_elasticsearch_DocumentToMetadataProcessor&#45;&gt;persisters_elasticsearch_updater</title>
<path fill="none" stroke="black" d="M624,-207.005C624,-191.342 624,-171.386 624,-155.323"/>
<polygon fill="black" stroke="black" points="627.5,-155.252 624,-145.252 620.5,-155.252 627.5,-155.252"/>
</g>
<!-- processors_elasticsearch_MetadataFromDocumentProcessor -->
<g id="node6" class="node">
<title>processors_elasticsearch_MetadataFromDocumentProcessor</title>
<ellipse fill="none" stroke="black" cx="349" cy="-233" rx="133.286" ry="18"/>
<text text-anchor="middle" x="349" y="-228.8" font-family="Times,serif" font-size="14.00">MetadataFromDocumentProcessor</text>
</g>
<!-- processors_elasticsearch_PercolateTagProcessor -->
<g id="node7" class="node">
<title>processors_elasticsearch_PercolateTagProcessor</title>
<ellipse fill="none" stroke="black" cx="107" cy="-233" rx="90.5456" ry="18"/>
<text text-anchor="middle" x="107" y="-228.8" font-family="Times,serif" font-size="14.00">PercolateTagProcessor</text>
</g>
<!-- persisters_elasticsearch_reader -->
<g id="node8" class="node">
<title>persisters_elasticsearch_reader</title>
<ellipse fill="none" stroke="black" cx="856" cy="-127" rx="105.263" ry="18"/>
<text text-anchor="middle" x="856" y="-122.8" font-family="Times,serif" font-size="14.00">ElasticsearchPersistReader</text>
</g>
<!-- persisters_elasticsearch_reader&#45;&gt;processors_elasticsearch_DocumentToMetadataProcessor -->
<g id="edge5" class="edge">
<title>persisters_elasticsearch_reader&#45;&gt;processors_elasticsearch_DocumentToMetadataProcessor</title>
<path fill="none" stroke="black" d="M818.905,-143.949C784.315,-159.753 731.931,-183.687 690.178,-202.764"/>
<polygon fill="black" stroke="black" points="688.54,-199.664 680.899,-207.003 691.449,-206.031 688.54,-199.664"/>
<text text-anchor="middle" x="796.379" y="-185.8" font-family="Times,serif" font-size="14.00">StreamsDatum[String]</text>
</g>
<!-- elasticsearch -->
<g id="node11" class="node">
<title>elasticsearch</title>
<path fill="none" stroke="black" d="M667.512,-48.7273C667.512,-50.5331 648.009,-52 624,-52 599.991,-52 580.488,-50.5331 580.488,-48.7273 580.488,-48.7273 580.488,-19.2727 580.488,-19.2727 580.488,-17.4669 599.991,-16 624,-16 648.009,-16 667.512,-17.4669 667.512,-19.2727 667.512,-19.2727 667.512,-48.7273 667.512,-48.7273"/>
<path fill="none" stroke="black" d="M667.512,-48.7273C667.512,-46.9214 648.009,-45.4545 624,-45.4545 599.991,-45.4545 580.488,-46.9214 580.488,-48.7273"/>
<text text-anchor="middle" x="624" y="-29.8" font-family="Times,serif" font-size="14.00">elasticsearch</text>
</g>
<!-- persisters_elasticsearch_updater&#45;&gt;elasticsearch -->
<g id="edge6" class="edge">
<title>persisters_elasticsearch_updater&#45;&gt;elasticsearch</title>
<path fill="none" stroke="black" d="M624,-108.626C624,-95.4212 624,-77.369 624,-62.3274"/>
<polygon fill="black" stroke="black" points="627.5,-62.0192 624,-52.0192 620.5,-62.0192 627.5,-62.0192"/>
</g>
<!-- &#45; elasticsearch
 &#160;persisters_elasticsearch_writer &#45; -->
<g id="node12" class="node">
<title>&#45; elasticsearch
 &#160;persisters_elasticsearch_writer &#45;</title>
<ellipse fill="none" stroke="black" cx="832" cy="-478.951" rx="143.552" ry="25.4118"/>
<text text-anchor="middle" x="832" y="-481.751" font-family="Times,serif" font-size="14.00">&#45; elasticsearch</text>
<text text-anchor="middle" x="832" y="-467.751" font-family="Times,serif" font-size="14.00"> &#160;persisters_elasticsearch_writer &#45;</text>
</g>
</g>
</svg>
