<?xml version="1.0" encoding="UTF-8" standalone="no"?>
<!DOCTYPE svg PUBLIC "-//W3C//DTD SVG 1.1//EN"
 "http://www.w3.org/Graphics/SVG/1.1/DTD/svg11.dtd">
<!-- Generated by graphviz version 2.39.20160214.2135 (20160214.2135)
 -->
<!-- Title: g Pages: 1 -->
<svg width="394pt" height="480pt"
 viewBox="0.00 0.00 394.00 479.76" xmlns="http://www.w3.org/2000/svg" xmlns:xlink="http://www.w3.org/1999/xlink">
<g id="graph0" class="graph" transform="scale(1 1) rotate(0) translate(4 475.76)">
<title>g</title>
<polygon fill="white" stroke="transparent" points="-4,4 -4,-475.76 390,-475.76 390,4 -4,4"/>
<g id="clust1" class="cluster">
<title>cluster_persisters</title>
<polygon fill="none" stroke="black" points="8,-8 8,-82 378,-82 378,-8 8,-8"/>
<text text-anchor="middle" x="193" y="-66.8" font-family="Times,serif" font-size="14.00">persisters</text>
</g>
<!-- generators -->
<g id="node1" class="node">
<title>generators</title>
<ellipse fill="none" stroke="black" cx="202" cy="-424.824" rx="46.8719" ry="46.8719"/>
<text text-anchor="middle" x="202" y="-420.624" font-family="Times,serif" font-size="14.00">generators</text>
</g>
<!-- providers -->
<g id="node2" class="node">
<title>providers</title>
<ellipse fill="none" stroke="black" cx="202" cy="-297.381" rx="43.5146" ry="43.5146"/>
<text text-anchor="middle" x="202" y="-293.181" font-family="Times,serif" font-size="14.00">providers</text>
</g>
<!-- generators&#45;&gt;providers -->
<g id="edge1" class="edge">
<title>generators&#45;&gt;providers</title>
<path fill="none" stroke="black" d="M202,-377.731C202,-369.067 202,-359.962 202,-351.121"/>
<polygon fill="black" stroke="black" points="205.5,-350.904 202,-340.904 198.5,-350.904 205.5,-350.904"/>
</g>
<!-- processors -->
<g id="node3" class="node">
<title>processors</title>
<ellipse fill="none" stroke="black" cx="202" cy="-169.437" rx="47.3736" ry="47.3736"/>
<text text-anchor="middle" x="202" y="-165.237" font-family="Times,serif" font-size="14.00">processors</text>
</g>
<!-- providers&#45;&gt;processors -->
<g id="edge2" class="edge">
<title>providers&#45;&gt;processors</title>
<path fill="none" stroke="black" d="M202,-253.708C202,-245.279 202,-236.325 202,-227.521"/>
<polygon fill="black" stroke="black" points="205.5,-227.296 202,-217.296 198.5,-227.296 205.5,-227.296"/>
</g>
<!-- persisters_console_writer -->
<g id="node5" class="node">
<title>persisters_console_writer</title>
<ellipse fill="none" stroke="black" cx="99" cy="-34" rx="82.8977" ry="18"/>
<text text-anchor="middle" x="99" y="-29.8" font-family="Times,serif" font-size="14.00">KinesisPersistWriter</text>
</g>
<!-- processors&#45;&gt;persisters_console_writer -->
<g id="edge3" class="edge">
<title>processors&#45;&gt;persisters_console_writer</title>
<path fill="none" stroke="black" d="M173.035,-131.35C155.749,-108.621 134.245,-80.3449 118.874,-60.1333"/>
<polygon fill="black" stroke="black" points="121.532,-57.8457 112.693,-52.0046 115.96,-62.083 121.532,-57.8457"/>
<text text-anchor="middle" x="192.604" y="-92.8" font-family="Times,serif" font-size="14.00">StreamsDatum</text>
</g>
<!-- persisters_console_reader -->
<g id="node4" class="node">
<title>persisters_console_reader</title>
<ellipse fill="none" stroke="black" cx="285" cy="-34" rx="85.0273" ry="18"/>
<text text-anchor="middle" x="285" y="-29.8" font-family="Times,serif" font-size="14.00">KinesisPersistReader</text>
</g>
<!-- persisters_console_reader&#45;&gt;processors -->
<g id="edge4" class="edge">
<title>persisters_console_reader&#45;&gt;processors</title>
<path fill="none" stroke="black" d="M273.951,-52.0287C263.31,-69.3933 246.727,-96.4521 232.163,-120.218"/>
<polygon fill="black" stroke="black" points="229.144,-118.446 226.903,-128.801 235.112,-122.104 229.144,-118.446"/>
<text text-anchor="middle" x="311.379" y="-92.8" font-family="Times,serif" font-size="14.00">StreamsDatum[String]</text>
</g>
</g>
</svg>
