<?xml version="1.0" encoding="UTF-8" standalone="no"?>
<!DOCTYPE svg PUBLIC "-//W3C//DTD SVG 1.1//EN"
 "http://www.w3.org/Graphics/SVG/1.1/DTD/svg11.dtd">
<!-- Generated by graphviz version 2.39.20160214.2135 (20160214.2135)
 -->
<!-- Title: g Pages: 1 -->
<svg width="553pt" height="395pt"
 viewBox="0.00 0.00 553.00 395.00" xmlns="http://www.w3.org/2000/svg" xmlns:xlink="http://www.w3.org/1999/xlink">
<g id="graph0" class="graph" transform="scale(1 1) rotate(0) translate(4 391)">
<title>g</title>
<polygon fill="white" stroke="transparent" points="-4,4 -4,-391 549,-391 549,4 -4,4"/>
<g id="clust1" class="cluster">
<title>cluster_generators</title>
<polygon fill="none" stroke="black" stroke-dasharray="1,5" points="167,-305 167,-379 379,-379 379,-305 167,-305"/>
<text text-anchor="middle" x="273" y="-363.8" font-family="Times,serif" font-size="14.00">generators</text>
</g>
<g id="clust2" class="cluster">
<title>cluster_providers</title>
<polygon fill="none" stroke="black" points="54,-212 54,-286 529,-286 529,-212 54,-212"/>
<text text-anchor="middle" x="291.5" y="-270.8" font-family="Times,serif" font-size="14.00">providers</text>
</g>
<g id="clust3" class="cluster">
<title>cluster_processors</title>
<polygon fill="none" stroke="black" points="8,-92 8,-166 537,-166 537,-92 8,-92"/>
<text text-anchor="middle" x="272.5" y="-150.8" font-family="Times,serif" font-size="14.00">processors</text>
</g>
<!-- generators_facebook -->
<g id="node1" class="node">
<title>generators_facebook</title>
<ellipse fill="none" stroke="black" cx="273" cy="-331" rx="97.5707" ry="18"/>
<text text-anchor="middle" x="273" y="-326.8" font-family="Times,serif" font-size="14.00">https://api.facebook.com</text>
</g>
<!-- providers_facebook_page -->
<g id="node2" class="node">
<title>providers_facebook_page</title>
<ellipse fill="none" stroke="black" cx="154" cy="-238" rx="92.267" ry="18"/>
<text text-anchor="middle" x="154" y="-233.8" font-family="Times,serif" font-size="14.00">FacebookPageProvider</text>
</g>
<!-- generators_facebook&#45;&gt;providers_facebook_page -->
<g id="edge1" class="edge">
<title>generators_facebook&#45;&gt;providers_facebook_page</title>
<path fill="none" stroke="black" d="M250.337,-313.289C231.726,-298.744 205.189,-278.005 184.677,-261.975"/>
<polygon fill="black" stroke="black" points="186.613,-259.046 176.579,-255.646 182.303,-264.561 186.613,-259.046"/>
</g>
<!-- providers_facebook_pagefeed -->
<g id="node3" class="node">
<title>providers_facebook_pagefeed</title>
<ellipse fill="none" stroke="black" cx="393" cy="-238" rx="128.44" ry="18"/>
<text text-anchor="middle" x="393" y="-233.8" font-family="Times,serif" font-size="14.00">FacebookPageFeedDataCollector</text>
</g>
<!-- generators_facebook&#45;&gt;providers_facebook_pagefeed -->
<g id="edge2" class="edge">
<title>generators_facebook&#45;&gt;providers_facebook_pagefeed</title>
<path fill="none" stroke="black" d="M295.854,-313.289C314.501,-298.837 341.04,-278.269 361.669,-262.282"/>
<polygon fill="black" stroke="black" points="364.063,-264.855 369.823,-255.962 359.775,-259.322 364.063,-264.855"/>
</g>
<!-- processors_facebook_activityobject -->
<g id="node5" class="node">
<title>processors_facebook_activityobject</title>
<ellipse fill="none" stroke="black" cx="139" cy="-118" rx="122.678" ry="18"/>
<text text-anchor="middle" x="139" y="-113.8" font-family="Times,serif" font-size="14.00">FacebookPostActivitySerializer</text>
</g>
<!-- providers_facebook_page&#45;&gt;processors_facebook_activityobject -->
<g id="edge3" class="edge">
<title>providers_facebook_page&#45;&gt;processors_facebook_activityobject</title>
<path fill="none" stroke="black" d="M151.722,-219.775C149.274,-200.19 145.352,-168.818 142.51,-146.078"/>
<polygon fill="black" stroke="black" points="145.964,-145.492 141.25,-136.004 139.018,-146.361 145.964,-145.492"/>
<text text-anchor="middle" x="182.269" y="-183.8" font-family="Times,serif" font-size="14.00">o.a.s.f.Page</text>
</g>
<!-- processors_facebook_activity -->
<g id="node4" class="node">
<title>processors_facebook_activity</title>
<ellipse fill="none" stroke="black" cx="404" cy="-118" rx="124.582" ry="18"/>
<text text-anchor="middle" x="404" y="-113.8" font-family="Times,serif" font-size="14.00">FacebookPageActivitySerializer</text>
</g>
<!-- providers_facebook_pagefeed&#45;&gt;processors_facebook_activity -->
<g id="edge4" class="edge">
<title>providers_facebook_pagefeed&#45;&gt;processors_facebook_activity</title>
<path fill="none" stroke="black" d="M394.671,-219.775C396.466,-200.19 399.342,-168.818 401.426,-146.078"/>
<polygon fill="black" stroke="black" points="404.922,-146.282 402.35,-136.004 397.951,-145.642 404.922,-146.282"/>
<text text-anchor="middle" x="444.272" y="-190.8" font-family="Times,serif" font-size="14.00">o.a.s.f.Post</text>
<text text-anchor="middle" x="444.272" y="-176.8" font-family="Times,serif" font-size="14.00">o.a.s.f.Comment</text>
</g>
<!-- persisters -->
<g id="node6" class="node">
<title>persisters</title>
<path fill="none" stroke="black" d="M326.376,-32.7273C326.376,-34.5331 310.968,-36 292,-36 273.032,-36 257.624,-34.5331 257.624,-32.7273 257.624,-32.7273 257.624,-3.27273 257.624,-3.27273 257.624,-1.46689 273.032,-0 292,-0 310.968,-0 326.376,-1.46689 326.376,-3.27273 326.376,-3.27273 326.376,-32.7273 326.376,-32.7273"/>
<path fill="none" stroke="black" d="M326.376,-32.7273C326.376,-30.9214 310.968,-29.4545 292,-29.4545 273.032,-29.4545 257.624,-30.9214 257.624,-32.7273"/>
<text text-anchor="middle" x="292" y="-13.8" font-family="Times,serif" font-size="14.00">persisters</text>
</g>
<!-- processors_facebook_activity&#45;&gt;persisters -->
<g id="edge6" class="edge">
<title>processors_facebook_activity&#45;&gt;persisters</title>
<path fill="none" stroke="black" d="M383.977,-100.122C366.091,-84.1523 339.713,-60.6011 319.787,-42.8098"/>
<polygon fill="black" stroke="black" points="322.018,-40.1098 312.228,-36.0604 317.356,-45.3314 322.018,-40.1098"/>
<text text-anchor="middle" x="412.136" y="-70.8" font-family="Times,serif" font-size="14.00">o.a.s.p.j.Post</text>
<text text-anchor="middle" x="412.136" y="-56.8" font-family="Times,serif" font-size="14.00">o.a.s.p.j.Comment</text>
</g>
<!-- processors_facebook_activityobject&#45;&gt;persisters -->
<g id="edge5" class="edge">
<title>processors_facebook_activityobject&#45;&gt;persisters</title>
<path fill="none" stroke="black" d="M166.001,-100.352C191.314,-83.8077 229.299,-58.9814 256.942,-40.9137"/>
<polygon fill="black" stroke="black" points="259.069,-43.7049 265.525,-35.3041 255.239,-37.8454 259.069,-43.7049"/>
<text text-anchor="middle" x="271.133" y="-63.8" font-family="Times,serif" font-size="14.00">o.a.s.p.j.Page</text>
</g>
</g>
</svg>
