<?xml version="1.0" encoding="UTF-8" standalone="no"?>
<!DOCTYPE svg PUBLIC "-//W3C//DTD SVG 1.1//EN"
 "http://www.w3.org/Graphics/SVG/1.1/DTD/svg11.dtd">
<!-- Generated by graphviz version 2.39.20160214.2135 (20160214.2135)
 -->
<!-- Title: g Pages: 1 -->
<svg width="434pt" height="573pt"
 viewBox="0.00 0.00 434.00 572.76" xmlns="http://www.w3.org/2000/svg" xmlns:xlink="http://www.w3.org/1999/xlink">
<g id="graph0" class="graph" transform="scale(1 1) rotate(0) translate(4 568.76)">
<title>g</title>
<polygon fill="white" stroke="transparent" points="-4,4 -4,-568.76 430,-568.76 430,4 -4,4"/>
<g id="clust1" class="cluster">
<title>cluster_persisters</title>
<polygon fill="none" stroke="black" points="8,-101 8,-175 418,-175 418,-101 8,-101"/>
<text text-anchor="middle" x="213" y="-159.8" font-family="Times,serif" font-size="14.00">persisters</text>
</g>
<g id="clust2" class="cluster">
<title>cluster_dbs</title>
<polygon fill="none" stroke="black" points="123,-8 123,-82 209,-82 209,-8 123,-8"/>
<text text-anchor="middle" x="166" y="-66.8" font-family="Times,serif" font-size="14.00">dbs</text>
</g>
<!-- generators -->
<g id="node1" class="node">
<title>generators</title>
<ellipse fill="none" stroke="black" cx="224" cy="-517.824" rx="46.8719" ry="46.8719"/>
<text text-anchor="middle" x="224" y="-513.624" font-family="Times,serif" font-size="14.00">generators</text>
</g>
<!-- providers -->
<g id="node2" class="node">
<title>providers</title>
<ellipse fill="none" stroke="black" cx="224" cy="-390.381" rx="43.5146" ry="43.5146"/>
<text text-anchor="middle" x="224" y="-386.181" font-family="Times,serif" font-size="14.00">providers</text>
</g>
<!-- generators&#45;&gt;providers -->
<g id="edge1" class="edge">
<title>generators&#45;&gt;providers</title>
<path fill="none" stroke="black" d="M224,-470.731C224,-462.067 224,-452.962 224,-444.121"/>
<polygon fill="black" stroke="black" points="227.5,-443.904 224,-433.904 220.5,-443.904 227.5,-443.904"/>
</g>
<!-- processors -->
<g id="node3" class="node">
<title>processors</title>
<ellipse fill="none" stroke="black" cx="224" cy="-262.437" rx="47.3736" ry="47.3736"/>
<text text-anchor="middle" x="224" y="-258.237" font-family="Times,serif" font-size="14.00">processors</text>
</g>
<!-- providers&#45;&gt;processors -->
<g id="edge2" class="edge">
<title>providers&#45;&gt;processors</title>
<path fill="none" stroke="black" d="M224,-346.708C224,-338.279 224,-329.325 224,-320.521"/>
<polygon fill="black" stroke="black" points="227.5,-320.296 224,-310.296 220.5,-320.296 227.5,-320.296"/>
</g>
<!-- persisters_cassandra_writer -->
<g id="node5" class="node">
<title>persisters_cassandra_writer</title>
<ellipse fill="none" stroke="black" cx="109" cy="-127" rx="92.5283" ry="18"/>
<text text-anchor="middle" x="109" y="-122.8" font-family="Times,serif" font-size="14.00">CassandraPersistWriter</text>
</g>
<!-- processors&#45;&gt;persisters_cassandra_writer -->
<g id="edge3" class="edge">
<title>processors&#45;&gt;persisters_cassandra_writer</title>
<path fill="none" stroke="black" d="M193.182,-226.142C173.565,-203.038 148.623,-173.664 130.995,-152.904"/>
<polygon fill="black" stroke="black" points="133.532,-150.485 124.392,-145.127 128.197,-155.015 133.532,-150.485"/>
<text text-anchor="middle" x="208.604" y="-185.8" font-family="Times,serif" font-size="14.00">StreamsDatum</text>
</g>
<!-- persisters_cassandra_reader -->
<g id="node4" class="node">
<title>persisters_cassandra_reader</title>
<ellipse fill="none" stroke="black" cx="315" cy="-127" rx="95.1568" ry="18"/>
<text text-anchor="middle" x="315" y="-122.8" font-family="Times,serif" font-size="14.00">CassandraPersistReader</text>
</g>
<!-- persisters_cassandra_reader&#45;&gt;processors -->
<g id="edge4" class="edge">
<title>persisters_cassandra_reader&#45;&gt;processors</title>
<path fill="none" stroke="black" d="M302.925,-144.971C291.042,-162.657 272.374,-190.441 256.177,-214.548"/>
<polygon fill="black" stroke="black" points="253.238,-212.646 250.566,-222.899 259.048,-216.55 253.238,-212.646"/>
<text text-anchor="middle" x="337.379" y="-185.8" font-family="Times,serif" font-size="14.00">StreamsDatum[String]</text>
</g>
<!-- cassandra -->
<g id="node6" class="node">
<title>cassandra</title>
<path fill="none" stroke="black" d="M201.415,-48.7273C201.415,-50.5331 185.542,-52 166,-52 146.458,-52 130.585,-50.5331 130.585,-48.7273 130.585,-48.7273 130.585,-19.2727 130.585,-19.2727 130.585,-17.4669 146.458,-16 166,-16 185.542,-16 201.415,-17.4669 201.415,-19.2727 201.415,-19.2727 201.415,-48.7273 201.415,-48.7273"/>
<path fill="none" stroke="black" d="M201.415,-48.7273C201.415,-46.9214 185.542,-45.4545 166,-45.4545 146.458,-45.4545 130.585,-46.9214 130.585,-48.7273"/>
<text text-anchor="middle" x="166" y="-29.8" font-family="Times,serif" font-size="14.00">cassandra</text>
</g>
<!-- persisters_cassandra_writer&#45;&gt;cassandra -->
<g id="edge6" class="edge">
<title>persisters_cassandra_writer&#45;&gt;cassandra</title>
<path fill="none" stroke="black" d="M119.99,-109.069C128.374,-95.3905 140.057,-76.3279 149.553,-60.8352"/>
<polygon fill="black" stroke="black" points="152.608,-62.5486 154.849,-52.1936 146.639,-58.8907 152.608,-62.5486"/>
</g>
<!-- cassandra&#45;&gt;persisters_cassandra_reader -->
<g id="edge5" class="edge">
<title>cassandra&#45;&gt;persisters_cassandra_reader</title>
<path fill="none" stroke="black" d="M193.781,-51.3397C217.781,-66.3198 252.628,-88.0698 278.806,-104.409"/>
<polygon fill="black" stroke="black" points="276.987,-107.4 287.323,-109.725 280.693,-101.461 276.987,-107.4"/>
</g>
</g>
</svg>
