<?xml version="1.0" encoding="UTF-8" standalone="no"?>
<!DOCTYPE svg PUBLIC "-//W3C//DTD SVG 1.1//EN"
 "http://www.w3.org/Graphics/SVG/1.1/DTD/svg11.dtd">
<!-- Generated by graphviz version 2.39.20160214.2135 (20160214.2135)
 -->
<!-- Title: g Pages: 1 -->
<svg width="422pt" height="573pt"
 viewBox="0.00 0.00 422.00 572.76" xmlns="http://www.w3.org/2000/svg" xmlns:xlink="http://www.w3.org/1999/xlink">
<g id="graph0" class="graph" transform="scale(1 1) rotate(0) translate(4 568.76)">
<title>g</title>
<polygon fill="white" stroke="transparent" points="-4,4 -4,-568.76 418,-568.76 418,4 -4,4"/>
<g id="clust1" class="cluster">
<title>cluster_persisters</title>
<polygon fill="none" stroke="black" points="8,-101 8,-175 406,-175 406,-101 8,-101"/>
<text text-anchor="middle" x="207" y="-159.8" font-family="Times,serif" font-size="14.00">persisters</text>
</g>
<g id="clust2" class="cluster">
<title>cluster_dbs</title>
<polygon fill="none" stroke="black" points="127,-8 127,-82 197,-82 197,-8 127,-8"/>
<text text-anchor="middle" x="162" y="-66.8" font-family="Times,serif" font-size="14.00">dbs</text>
</g>
<!-- generators -->
<g id="node1" class="node">
<title>generators</title>
<ellipse fill="none" stroke="black" cx="217" cy="-517.824" rx="46.8719" ry="46.8719"/>
<text text-anchor="middle" x="217" y="-513.624" font-family="Times,serif" font-size="14.00">generators</text>
</g>
<!-- providers -->
<g id="node2" class="node">
<title>providers</title>
<ellipse fill="none" stroke="black" cx="217" cy="-390.381" rx="43.5146" ry="43.5146"/>
<text text-anchor="middle" x="217" y="-386.181" font-family="Times,serif" font-size="14.00">providers</text>
</g>
<!-- generators&#45;&gt;providers -->
<g id="edge1" class="edge">
<title>generators&#45;&gt;providers</title>
<path fill="none" stroke="black" d="M217,-470.731C217,-462.067 217,-452.962 217,-444.121"/>
<polygon fill="black" stroke="black" points="220.5,-443.904 217,-433.904 213.5,-443.904 220.5,-443.904"/>
</g>
<!-- processors -->
<g id="node3" class="node">
<title>processors</title>
<ellipse fill="none" stroke="black" cx="217" cy="-262.437" rx="47.3736" ry="47.3736"/>
<text text-anchor="middle" x="217" y="-258.237" font-family="Times,serif" font-size="14.00">processors</text>
</g>
<!-- providers&#45;&gt;processors -->
<g id="edge2" class="edge">
<title>providers&#45;&gt;processors</title>
<path fill="none" stroke="black" d="M217,-346.708C217,-338.279 217,-329.325 217,-320.521"/>
<polygon fill="black" stroke="black" points="220.5,-320.296 217,-310.296 213.5,-320.296 220.5,-320.296"/>
</g>
<!-- persisters_hdfs_writer -->
<g id="node5" class="node">
<title>persisters_hdfs_writer</title>
<ellipse fill="none" stroke="black" cx="106" cy="-127" rx="89.7062" ry="18"/>
<text text-anchor="middle" x="106" y="-122.8" font-family="Times,serif" font-size="14.00">WebHdfsPersistWriter</text>
</g>
<!-- processors&#45;&gt;persisters_hdfs_writer -->
<g id="edge3" class="edge">
<title>processors&#45;&gt;persisters_hdfs_writer</title>
<path fill="none" stroke="black" d="M186.669,-225.428C167.826,-202.437 144.072,-173.453 127.232,-152.907"/>
<polygon fill="black" stroke="black" points="129.743,-150.448 120.697,-144.933 124.329,-154.885 129.743,-150.448"/>
<text text-anchor="middle" x="203.604" y="-185.8" font-family="Times,serif" font-size="14.00">StreamsDatum</text>
</g>
<!-- persisters_hdfs_reader -->
<g id="node4" class="node">
<title>persisters_hdfs_reader</title>
<ellipse fill="none" stroke="black" cx="306" cy="-127" rx="91.8351" ry="18"/>
<text text-anchor="middle" x="306" y="-122.8" font-family="Times,serif" font-size="14.00">WebHdfsPersistReader</text>
</g>
<!-- persisters_hdfs_reader&#45;&gt;processors -->
<g id="edge4" class="edge">
<title>persisters_hdfs_reader&#45;&gt;processors</title>
<path fill="none" stroke="black" d="M294.256,-144.871C282.744,-162.39 264.678,-189.882 248.91,-213.877"/>
<polygon fill="black" stroke="black" points="245.788,-212.255 243.222,-222.534 251.638,-216.099 245.788,-212.255"/>
<text text-anchor="middle" x="307.604" y="-185.8" font-family="Times,serif" font-size="14.00">StreamsDatum</text>
</g>
<!-- hdfs -->
<g id="node6" class="node">
<title>hdfs</title>
<polygon fill="none" stroke="black" points="189,-52 147,-52 147,-56 135,-56 135,-16 189,-16 189,-52"/>
<polyline fill="none" stroke="black" points="135,-52 147,-52 "/>
<text text-anchor="middle" x="162" y="-29.8" font-family="Times,serif" font-size="14.00">hdfs</text>
</g>
<!-- persisters_hdfs_writer&#45;&gt;hdfs -->
<g id="edge6" class="edge">
<title>persisters_hdfs_writer&#45;&gt;hdfs</title>
<path fill="none" stroke="black" d="M116.797,-109.069C125.034,-95.3905 136.512,-76.3279 145.841,-60.8352"/>
<polygon fill="black" stroke="black" points="148.885,-62.5659 151.045,-52.1936 142.888,-58.9549 148.885,-62.5659"/>
</g>
<!-- hdfs&#45;&gt;persisters_hdfs_reader -->
<g id="edge5" class="edge">
<title>hdfs&#45;&gt;persisters_hdfs_reader</title>
<path fill="none" stroke="black" d="M189.093,-51.4977C212.187,-66.4127 245.542,-87.9544 270.718,-104.214"/>
<polygon fill="black" stroke="black" points="268.953,-107.24 279.252,-109.725 272.751,-101.36 268.953,-107.24"/>
</g>
</g>
</svg>
